<?xml version="1.0" encoding="utf-8" standalone="no"?>
<!DOCTYPE svg PUBLIC "-//W3C//DTD SVG 1.1//EN" "http://www.w3.org/Graphics/SVG/1.1/DTD/svg11.dtd">
<svg width="3000px" height="3000px" version="1.1" xmlns="http://www.w3.org/2000/svg" xmlns:xlink="http://www.w3.org/1999/xlink">
<g id="bg">
<rect x="0" y="0" width="3000px" height="3000px" style="fill:rgb(255,255,255);"/>
</g>
<g id="ideograms">
<g id="highlighttrack_0">
<path d="M1600.382,352.633 A1151.750,1151.750 40.000 0,1 1601.979,352.774 L1613.977,217.806 A1287.250,1287.250 0.000 0,0 1612.191,217.648 Z" style="stroke-width:3.0;stroke:rgb(0,0,0);stroke-linecap:round;fill:rgb(0,0,0);" />
</g>
<path d="M1618.096,150.156 A1355.000,1355.000 40.000 0,1 1619.976,150.322 L1622.189,125.420 A1380.000,1380.000 0.000 0,0 1620.275,125.251 Z" style="stroke-width:1.0;stroke:rgb(82,82,82);stroke-linecap:round;fill:rgb(158,202,225);" />
<text x="1627.2" y="57.8" font-size="45.5px" font-family="CMUBright-Bold" style="text-anchor:middle;fill:rgb(0,0,0);" transform="rotate(365.0,1627.2,57.8)" >LR42</text>
<line x1='1620.3' y1='125.3' x2='1621.1' y2='115.3' style="stroke-width:1.0;stroke:rgb(0,0,0);stroke-linecap:round;fill:none;" />
<text x="1642.8" y="114.3" font-size="58.5px" font-family="CMUBright-Roman" style="text-anchor:start;fill:rgb(0,0,0);" transform="rotate(275.0,1642.8,114.3)" >0</text>
<path d="M1618.096,150.156 A1355.000,1355.000 40.000 0,1 1619.976,150.322 L1622.189,125.420 A1380.000,1380.000 0.000 0,0 1620.275,125.251 Z" style="stroke-width:1.0;stroke:rgb(82,82,82);stroke-linecap:round;fill:none;" />
<g id="highlighttrack_0">
<path d="M2171.322,564.129 A1151.750,1151.750 40.000 0,1 2172.632,565.070 L2251.765,455.078 A1287.250,1287.250 0.000 0,0 2250.301,454.026 Z" style="stroke-width:3.0;stroke:rgb(0,0,0);stroke-linecap:round;fill:rgb(0,0,0);" />
<path d="M2176.484,567.853 A1151.750,1151.750 40.000 0,1 2177.198,568.372 L2256.869,458.769 A1287.250,1287.250 0.000 0,0 2256.070,458.189 Z" style="stroke-width:3.0;stroke:rgb(0,0,0);stroke-linecap:round;fill:rgb(0,0,0);" />
<path d="M2154.635,552.382 A1151.750,1151.750 40.000 0,1 2155.163,552.746 L2232.241,441.305 A1287.250,1287.250 0.000 0,0 2231.651,440.897 Z" style="stroke-width:3.0;stroke:rgb(0,0,0);stroke-linecap:round;fill:rgb(0,0,0);" />
<path d="M2003.673,464.219 A1151.750,1151.750 40.000 0,1 2004.273,464.511 L2063.599,342.689 A1287.250,1287.250 0.000 0,0 2062.929,342.363 Z" style="stroke-width:3.0;stroke:rgb(0,0,0);stroke-linecap:round;fill:rgb(0,0,0);" />
</g>
<g id="highlighttrack_1">
<path d="M1716.915,368.861 A1151.750,1151.750 40.000 0,1 1718.505,369.167 L1744.212,236.128 A1287.250,1287.250 0.000 0,0 1742.435,235.786 Z" style="stroke-width:3.0;stroke:rgb(251,106,74);stroke-linecap:round;fill:rgb(251,106,74);" />
<path d="M1876.043,411.368 A1151.750,1151.750 40.000 0,1 1877.566,411.895 L1921.986,283.883 A1287.250,1287.250 0.000 0,0 1920.283,283.294 Z" style="stroke-width:3.0;stroke:rgb(251,106,74);stroke-linecap:round;fill:rgb(251,106,74);" />
<path d="M1722.114,369.870 A1151.750,1151.750 40.000 0,1 1723.696,370.182 L1750.013,237.262 A1287.250,1287.250 0.000 0,0 1748.245,236.914 Z" style="stroke-width:3.0;stroke:rgb(251,106,74);stroke-linecap:round;fill:rgb(251,106,74);" />
<path d="M1848.286,402.172 A1151.750,1151.750 40.000 0,1 1849.606,402.592 L1890.736,273.486 A1287.250,1287.250 0.000 0,0 1889.260,273.016 Z" style="stroke-width:3.0;stroke:rgb(251,106,74);stroke-linecap:round;fill:rgb(251,106,74);" />
</g>
<path d="M1755.194,169.248 A1355.000,1355.000 40.000 0,1 2296.704,403.967 L2311.403,383.745 A1380.000,1380.000 0.000 0,0 1759.902,144.695 Z" style="stroke-width:1.0;stroke:rgb(82,82,82);stroke-linecap:round;fill:rgb(161,217,155);" />
<text x="2075.8" y="171.7" font-size="45.5px" font-family="CMUBright-Bold" style="text-anchor:middle;fill:rgb(0,0,0);" transform="rotate(383.4,2075.8,171.7)" >TAUSCHII<tspan baseline-shift="-40%" font-size="90%">C</tspan>HR1D</text>
<line x1='1759.9' y1='144.7' x2='1761.8' y2='134.9' style="stroke-width:1.0;stroke:rgb(0,0,0);stroke-linecap:round;fill:none;" />
<text x="1783.4" y="136.1" font-size="58.5px" font-family="CMUBright-Roman" style="text-anchor:start;fill:rgb(0,0,0);" transform="rotate(280.9,1783.4,136.1)" >0</text>
<line x1='1895.0' y1='177.7' x2='1895.8' y2='174.9' style="stroke-width:1.0;stroke:rgb(0,0,0);stroke-linecap:round;fill:none;" />
<line x1='2026.0' y1='224.2' x2='2027.2' y2='221.4' style="stroke-width:1.0;stroke:rgb(0,0,0);stroke-linecap:round;fill:none;" />
<line x1='2151.8' y1='283.6' x2='2153.2' y2='281.0' style="stroke-width:1.0;stroke:rgb(0,0,0);stroke-linecap:round;fill:none;" />
<line x1='2270.9' y1='355.4' x2='2272.5' y2='352.9' style="stroke-width:1.0;stroke:rgb(0,0,0);stroke-linecap:round;fill:none;" />
<path d="M1755.194,169.248 A1355.000,1355.000 40.000 0,1 2296.704,403.967 L2311.403,383.745 A1380.000,1380.000 0.000 0,0 1759.902,144.695 Z" style="stroke-width:1.0;stroke:rgb(82,82,82);stroke-linecap:round;fill:none;" />
<g id="highlighttrack_0">
<path d="M2572.979,1081.379 A1151.750,1151.750 40.000 0,1 2573.562,1082.876 L2699.864,1033.803 A1287.250,1287.250 0.000 0,0 2699.212,1032.129 Z" style="stroke-width:3.0;stroke:rgb(0,0,0);stroke-linecap:round;fill:rgb(0,0,0);" />
<path d="M2524.703,974.157 A1151.750,1151.750 40.000 0,1 2525.292,975.306 L2645.915,913.577 A1287.250,1287.250 0.000 0,0 2645.257,912.293 Z" style="stroke-width:3.0;stroke:rgb(0,0,0);stroke-linecap:round;fill:rgb(0,0,0);" />
</g>
<g id="highlighttrack_1">
<path d="M2275.349,648.318 A1151.750,1151.750 40.000 0,1 2276.549,649.412 L2367.908,549.343 A1287.250,1287.250 0.000 0,0 2366.566,548.120 Z" style="stroke-width:3.0;stroke:rgb(251,106,74);stroke-linecap:round;fill:rgb(251,106,74);" />
<path d="M2268.697,642.309 A1151.750,1151.750 40.000 0,1 2269.154,642.720 L2359.643,541.863 A1287.250,1287.250 0.000 0,0 2359.132,541.404 Z" style="stroke-width:3.0;stroke:rgb(251,106,74);stroke-linecap:round;fill:rgb(251,106,74);" />
<path d="M2267.517,641.253 A1151.750,1151.750 40.000 0,1 2268.032,641.714 L2358.389,540.740 A1287.250,1287.250 0.000 0,0 2357.813,540.224 Z" style="stroke-width:3.0;stroke:rgb(251,106,74);stroke-linecap:round;fill:rgb(251,106,74);" />
</g>
<path d="M2402.961,489.709 A1355.000,1355.000 40.000 0,1 2763.014,1009.266 L2786.317,1000.212 A1380.000,1380.000 0.000 0,0 2419.620,471.069 Z" style="stroke-width:1.0;stroke:rgb(82,82,82);stroke-linecap:round;fill:rgb(150,150,150);" />
<text x="2689.9" y="675.4" font-size="45.5px" font-family="CMUBright-Bold" style="text-anchor:middle;fill:rgb(0,0,0);" transform="rotate(415.3,2689.9,675.4)" >CS<tspan baseline-shift="-40%" font-size="90%">1</tspan>A</text>
<line x1='2419.6' y1='471.1' x2='2426.3' y2='463.6' style="stroke-width:1.0;stroke:rgb(0,0,0);stroke-linecap:round;fill:none;" />
<text x="2444.2" y="475.8" font-size="58.5px" font-family="CMUBright-Roman" style="text-anchor:start;fill:rgb(0,0,0);" transform="rotate(311.8,2444.2,475.8)" >0</text>
<line x1='2518.5' y1='568.8' x2='2520.7' y2='566.8' style="stroke-width:1.0;stroke:rgb(0,0,0);stroke-linecap:round;fill:none;" />
<line x1='2607.0' y1='676.1' x2='2609.4' y2='674.3' style="stroke-width:1.0;stroke:rgb(0,0,0);stroke-linecap:round;fill:none;" />
<line x1='2684.3' y1='791.7' x2='2686.9' y2='790.1' style="stroke-width:1.0;stroke:rgb(0,0,0);stroke-linecap:round;fill:none;" />
<line x1='2749.6' y1='914.4' x2='2752.3' y2='913.2' style="stroke-width:1.0;stroke:rgb(0,0,0);stroke-linecap:round;fill:none;" />
<path d="M2402.961,489.709 A1355.000,1355.000 40.000 0,1 2763.014,1009.266 L2786.317,1000.212 A1380.000,1380.000 0.000 0,0 2419.620,471.069 Z" style="stroke-width:1.0;stroke:rgb(82,82,82);stroke-linecap:round;fill:none;" />
<g id="highlighttrack_0">
<path d="M2651.067,1460.349 A1151.750,1151.750 40.000 0,1 2651.120,1461.923 L2786.546,1457.443 A1287.250,1287.250 0.000 0,0 2786.487,1455.684 Z" style="stroke-width:3.0;stroke:rgb(0,0,0);stroke-linecap:round;fill:rgb(0,0,0);" />
<path d="M2651.673,1486.670 A1151.750,1151.750 40.000 0,1 2651.689,1488.178 L2787.182,1486.788 A1287.250,1287.250 0.000 0,0 2787.164,1485.101 Z" style="stroke-width:3.0;stroke:rgb(0,0,0);stroke-linecap:round;fill:rgb(0,0,0);" />
<path d="M2645.373,1378.964 A1151.750,1151.750 40.000 0,1 2645.503,1380.200 L2780.268,1366.106 A1287.250,1287.250 0.000 0,0 2780.122,1364.724 Z" style="stroke-width:3.0;stroke:rgb(0,0,0);stroke-linecap:round;fill:rgb(0,0,0);" />
</g>
<g id="highlighttrack_1">
<path d="M2629.261,1273.508 A1151.750,1151.750 40.000 0,1 2629.575,1275.083 L2762.467,1248.623 A1287.250,1287.250 0.000 0,0 2762.115,1246.862 Z" style="stroke-width:3.0;stroke:rgb(251,106,74);stroke-linecap:round;fill:rgb(251,106,74);" />
<path d="M2610.090,1193.035 A1151.750,1151.750 40.000 0,1 2610.518,1194.586 L2741.167,1158.655 A1287.250,1287.250 0.000 0,0 2740.689,1156.921 Z" style="stroke-width:3.0;stroke:rgb(251,106,74);stroke-linecap:round;fill:rgb(251,106,74);" />
<path d="M2630.632,1280.458 A1151.750,1151.750 40.000 0,1 2630.844,1281.549 L2763.884,1255.849 A1287.250,1287.250 0.000 0,0 2763.648,1254.629 Z" style="stroke-width:3.0;stroke:rgb(251,106,74);stroke-linecap:round;fill:rgb(251,106,74);" />
<path d="M2615.552,1213.518 A1151.750,1151.750 40.000 0,1 2615.752,1214.298 L2747.017,1180.686 A1287.250,1287.250 0.000 0,0 2746.793,1179.814 Z" style="stroke-width:3.0;stroke:rgb(251,106,74);stroke-linecap:round;fill:rgb(251,106,74);" />
<path d="M2619.017,1227.365 A1151.750,1151.750 40.000 0,1 2619.155,1227.932 L2750.820,1195.923 A1287.250,1287.250 0.000 0,0 2750.666,1195.290 Z" style="stroke-width:3.0;stroke:rgb(251,106,74);stroke-linecap:round;fill:rgb(251,106,74);" />
<path d="M2618.676,1225.969 A1151.750,1151.750 40.000 0,1 2618.846,1226.667 L2750.475,1194.510 A1287.250,1287.250 0.000 0,0 2750.285,1193.731 Z" style="stroke-width:3.0;stroke:rgb(251,106,74);stroke-linecap:round;fill:rgb(251,106,74);" />
</g>
<path d="M2805.988,1138.864 A1355.000,1355.000 40.000 0,1 2854.929,1486.092 L2879.927,1485.836 A1380.000,1380.000 0.000 0,0 2830.084,1132.200 Z" style="stroke-width:1.0;stroke:rgb(82,82,82);stroke-linecap:round;fill:rgb(158,154,200);" />
<text x="2933.6" y="1297.9" font-size="45.5px" font-family="CMUBright-Bold" style="text-anchor:middle;fill:rgb(0,0,0);" transform="rotate(442.0,2933.6,1297.9)" >CS<tspan baseline-shift="-40%" font-size="90%">1</tspan>B</text>
<line x1='2830.1' y1='1132.2' x2='2839.7' y2='1129.5' style="stroke-width:1.0;stroke:rgb(0,0,0);stroke-linecap:round;fill:none;" />
<text x="2848.2" y="1149.5" font-size="58.5px" font-family="CMUBright-Roman" style="text-anchor:start;fill:rgb(0,0,0);" transform="rotate(344.5,2848.2,1149.5)" >0</text>
<line x1='2860.3' y1='1267.9' x2='2863.3' y2='1267.4' style="stroke-width:1.0;stroke:rgb(0,0,0);stroke-linecap:round;fill:none;" />
<line x1='2876.8' y1='1406.0' x2='2879.8' y2='1405.8' style="stroke-width:1.0;stroke:rgb(0,0,0);stroke-linecap:round;fill:none;" />
<path d="M2805.988,1138.864 A1355.000,1355.000 40.000 0,1 2854.929,1486.092 L2879.927,1485.836 A1380.000,1380.000 0.000 0,0 2830.084,1132.200 Z" style="stroke-width:1.0;stroke:rgb(82,82,82);stroke-linecap:round;fill:none;" />
<g id="highlighttrack_0">
<path d="M2510.723,2052.237 A1151.750,1151.750 40.000 0,1 2509.951,2053.649 L2628.769,2118.784 A1287.250,1287.250 0.000 0,0 2629.632,2117.207 Z" style="stroke-width:3.0;stroke:rgb(0,0,0);stroke-linecap:round;fill:rgb(0,0,0);" />
</g>
<g id="highlighttrack_1">
<path d="M2647.032,1604.141 A1151.750,1151.750 40.000 0,1 2646.885,1605.752 L2781.812,1618.193 A1287.250,1287.250 0.000 0,0 2781.977,1616.393 Z" style="stroke-width:3.0;stroke:rgb(251,106,74);stroke-linecap:round;fill:rgb(251,106,74);" />
<path d="M2608.821,1811.518 A1151.750,1151.750 40.000 0,1 2608.384,1813.070 L2738.782,1849.901 A1287.250,1287.250 0.000 0,0 2739.271,1848.167 Z" style="stroke-width:3.0;stroke:rgb(251,106,74);stroke-linecap:round;fill:rgb(251,106,74);" />
<path d="M2614.592,1790.194 A1151.750,1151.750 40.000 0,1 2614.184,1791.756 L2745.265,1826.080 A1287.250,1287.250 0.000 0,0 2745.720,1824.335 Z" style="stroke-width:3.0;stroke:rgb(251,106,74);stroke-linecap:round;fill:rgb(251,106,74);" />
<path d="M2646.541,1609.412 A1151.750,1151.750 40.000 0,1 2646.387,1611.016 L2781.256,1624.077 A1287.250,1287.250 0.000 0,0 2781.429,1622.284 Z" style="stroke-width:3.0;stroke:rgb(251,106,74);stroke-linecap:round;fill:rgb(251,106,74);" />
<path d="M2601.089,1837.834 A1151.750,1151.750 40.000 0,1 2600.867,1838.554 L2730.381,1878.384 A1287.250,1287.250 0.000 0,0 2730.629,1877.579 Z" style="stroke-width:3.0;stroke:rgb(251,106,74);stroke-linecap:round;fill:rgb(251,106,74);" />
<path d="M2635.222,1694.419 A1151.750,1151.750 40.000 0,1 2635.121,1695.009 L2768.665,1717.951 A1287.250,1287.250 0.000 0,0 2768.778,1717.292 Z" style="stroke-width:3.0;stroke:rgb(251,106,74);stroke-linecap:round;fill:rgb(251,106,74);" />
</g>
<path d="M2849.450,1622.518 A1355.000,1355.000 40.000 0,1 2688.178,2151.351 L2710.100,2163.369 A1380.000,1380.000 0.000 0,0 2874.347,1624.779 Z" style="stroke-width:1.0;stroke:rgb(82,82,82);stroke-linecap:round;fill:rgb(116,196,118);" />
<text x="2933.6" y="1937.2" font-size="45.5px" font-family="CMUBright-Bold" style="text-anchor:middle;fill:rgb(0,0,0);" transform="rotate(-73.0,2933.6,1937.2)" >CS<tspan baseline-shift="-40%" font-size="90%">1</tspan>D</text>
<line x1='2874.3' y1='1624.8' x2='2884.3' y2='1625.7' style="stroke-width:1.0;stroke:rgb(0,0,0);stroke-linecap:round;fill:none;" />
<text x="2885.2" y="1647.4" font-size="58.5px" font-family="CMUBright-Roman" style="text-anchor:start;fill:rgb(0,0,0);" transform="rotate(5.2,2885.2,1647.4)" >0</text>
<line x1='2854.8' y1='1762.5' x2='2857.8' y2='1763.0' style="stroke-width:1.0;stroke:rgb(0,0,0);stroke-linecap:round;fill:none;" />
<line x1='2821.5' y1='1897.5' x2='2824.4' y2='1898.3' style="stroke-width:1.0;stroke:rgb(0,0,0);stroke-linecap:round;fill:none;" />
<line x1='2774.8' y1='2028.4' x2='2777.6' y2='2029.6' style="stroke-width:1.0;stroke:rgb(0,0,0);stroke-linecap:round;fill:none;" />
<line x1='2715.2' y1='2154.1' x2='2717.8' y2='2155.5' style="stroke-width:1.0;stroke:rgb(0,0,0);stroke-linecap:round;fill:none;" />
<path d="M2849.450,1622.518 A1355.000,1355.000 40.000 0,1 2688.178,2151.351 L2710.100,2163.369 A1380.000,1380.000 0.000 0,0 2874.347,1624.779 Z" style="stroke-width:1.0;stroke:rgb(82,82,82);stroke-linecap:round;fill:none;" />
<g id="highlighttrack_0">
<path d="M2141.142,2456.799 A1151.750,1151.750 40.000 0,1 2139.805,2457.694 L2215.076,2570.364 A1287.250,1287.250 0.000 0,0 2216.570,2569.364 Z" style="stroke-width:3.0;stroke:rgb(0,0,0);stroke-linecap:round;fill:rgb(0,0,0);" />
<path d="M2146.591,2453.125 A1151.750,1151.750 40.000 0,1 2145.874,2453.611 L2221.859,2565.801 A1287.250,1287.250 0.000 0,0 2222.661,2565.258 Z" style="stroke-width:3.0;stroke:rgb(0,0,0);stroke-linecap:round;fill:rgb(0,0,0);" />
</g>
<g id="highlighttrack_1">
<path d="M2443.100,2161.129 A1151.750,1151.750 40.000 0,1 2442.166,2162.458 L2553.010,2240.394 A1287.250,1287.250 0.000 0,0 2554.053,2238.908 Z" style="stroke-width:3.0;stroke:rgb(251,106,74);stroke-linecap:round;fill:rgb(251,106,74);" />
<path d="M2448.208,2153.781 A1151.750,1151.750 40.000 0,1 2447.859,2154.287 L2559.372,2231.261 A1287.250,1287.250 0.000 0,0 2559.762,2230.696 Z" style="stroke-width:3.0;stroke:rgb(251,106,74);stroke-linecap:round;fill:rgb(251,106,74);" />
<path d="M2449.106,2152.477 A1151.750,1151.750 40.000 0,1 2448.714,2153.046 L2560.328,2229.875 A1287.250,1287.250 0.000 0,0 2560.766,2229.239 Z" style="stroke-width:3.0;stroke:rgb(251,106,74);stroke-linecap:round;fill:rgb(251,106,74);" />
</g>
<path d="M2616.596,2267.619 A1355.000,1355.000 40.000 0,1 2252.712,2626.699 L2266.599,2647.487 A1380.000,1380.000 0.000 0,0 2637.197,2281.782 Z" style="stroke-width:1.0;stroke:rgb(82,82,82);stroke-linecap:round;fill:rgb(217,217,217);" />
<text x="2552.7" y="2566.8" font-size="45.5px" font-family="CMUBright-Bold" style="text-anchor:middle;fill:rgb(0,0,0);" transform="rotate(-44.6,2552.7,2566.8)" >DURUM<tspan baseline-shift="-40%" font-size="90%">1</tspan>A</text>
<line x1='2637.2' y1='2281.8' x2='2645.4' y2='2287.4' style="stroke-width:1.0;stroke:rgb(0,0,0);stroke-linecap:round;fill:none;" />
<text x="2635.6" y="2306.8" font-size="58.5px" font-family="CMUBright-Roman" style="text-anchor:start;fill:rgb(0,0,0);" transform="rotate(34.5,2635.6,2306.8)" >0</text>
<line x1='2552.7' y1='2392.3' x2='2555.0' y2='2394.2' style="stroke-width:1.0;stroke:rgb(0,0,0);stroke-linecap:round;fill:none;" />
<line x1='2457.6' y1='2493.7' x2='2459.7' y2='2495.8' style="stroke-width:1.0;stroke:rgb(0,0,0);stroke-linecap:round;fill:none;" />
<line x1='2352.7' y1='2585.0' x2='2354.6' y2='2587.4' style="stroke-width:1.0;stroke:rgb(0,0,0);stroke-linecap:round;fill:none;" />
<path d="M2616.596,2267.619 A1355.000,1355.000 40.000 0,1 2252.712,2626.699 L2266.599,2647.487 A1380.000,1380.000 0.000 0,0 2637.197,2281.782 Z" style="stroke-width:1.0;stroke:rgb(82,82,82);stroke-linecap:round;fill:none;" />
<g id="highlighttrack_0">
<path d="M2034.349,2520.294 A1151.750,1151.750 40.000 0,1 2032.925,2521.038 L2095.622,2641.160 A1287.250,1287.250 0.000 0,0 2097.213,2640.328 Z" style="stroke-width:3.0;stroke:rgb(0,0,0);stroke-linecap:round;fill:rgb(0,0,0);" />
<path d="M1493.101,2651.729 A1151.750,1151.750 40.000 0,1 1491.524,2651.719 L1490.527,2787.215 A1287.250,1287.250 0.000 0,0 1492.290,2787.227 Z" style="stroke-width:3.0;stroke:rgb(0,0,0);stroke-linecap:round;fill:rgb(0,0,0);" />
<path d="M1502.077,2651.748 A1151.750,1151.750 40.000 0,1 1500.485,2651.750 L1500.542,2787.250 A1287.250,1287.250 0.000 0,0 1502.321,2787.248 Z" style="stroke-width:3.0;stroke:rgb(0,0,0);stroke-linecap:round;fill:rgb(0,0,0);" />
<path d="M1978.465,2547.664 A1151.750,1151.750 40.000 0,1 1977.000,2548.332 L2033.118,2671.665 A1287.250,1287.250 0.000 0,0 2034.755,2670.918 Z" style="stroke-width:3.0;stroke:rgb(0,0,0);stroke-linecap:round;fill:rgb(0,0,0);" />
<path d="M1424.233,2649.255 A1151.750,1151.750 40.000 0,1 1422.699,2649.153 L1413.605,2784.347 A1287.250,1287.250 0.000 0,0 1415.319,2784.462 Z" style="stroke-width:3.0;stroke:rgb(0,0,0);stroke-linecap:round;fill:rgb(0,0,0);" />
<path d="M2040.177,2517.220 A1151.750,1151.750 40.000 0,1 2039.195,2517.741 L2102.630,2637.475 A1287.250,1287.250 0.000 0,0 2103.727,2636.893 Z" style="stroke-width:3.0;stroke:rgb(0,0,0);stroke-linecap:round;fill:rgb(0,0,0);" />
</g>
<g id="highlighttrack_1">
<path d="M1675.767,2638.259 A1151.750,1151.750 40.000 0,1 1674.194,2638.501 L1694.688,2772.442 A1287.250,1287.250 0.000 0,0 1696.445,2772.172 Z" style="stroke-width:3.0;stroke:rgb(251,106,74);stroke-linecap:round;fill:rgb(251,106,74);" />
<path d="M1584.080,2648.677 A1151.750,1151.750 40.000 0,1 1582.508,2648.791 L1592.215,2783.943 A1287.250,1287.250 0.000 0,0 1593.972,2783.815 Z" style="stroke-width:3.0;stroke:rgb(251,106,74);stroke-linecap:round;fill:rgb(251,106,74);" />
<path d="M1682.272,2637.236 A1151.750,1151.750 40.000 0,1 1680.680,2637.490 L1701.937,2771.312 A1287.250,1287.250 0.000 0,0 1703.716,2771.028 Z" style="stroke-width:3.0;stroke:rgb(251,106,74);stroke-linecap:round;fill:rgb(251,106,74);" />
</g>
<path d="M2135.503,2696.729 A1355.000,1355.000 40.000 0,1 1409.058,2851.945 L1407.380,2876.888 A1380.000,1380.000 0.000 0,0 2147.228,2718.809 Z" style="stroke-width:1.0;stroke:rgb(82,82,82);stroke-linecap:round;fill:rgb(218,218,235);" />
<text x="1813.2" y="2965.7" font-size="45.5px" font-family="CMUBright-Bold" style="text-anchor:middle;fill:rgb(0,0,0);" transform="rotate(-12.1,1813.2,2965.7)" >DURUM<tspan baseline-shift="-40%" font-size="90%">1</tspan>B</text>
<line x1='2147.2' y1='2718.8' x2='2151.9' y2='2727.6' style="stroke-width:1.0;stroke:rgb(0,0,0);stroke-linecap:round;fill:none;" />
<text x="2134.3" y="2740.2" font-size="58.5px" font-family="CMUBright-Roman" style="text-anchor:start;fill:rgb(0,0,0);" transform="rotate(62.0,2134.3,2740.2)" >0</text>
<line x1='2021.3' y1='2777.8' x2='2022.4' y2='2780.5' style="stroke-width:1.0;stroke:rgb(0,0,0);stroke-linecap:round;fill:none;" />
<line x1='1890.0' y1='2823.7' x2='1890.9' y2='2826.6' style="stroke-width:1.0;stroke:rgb(0,0,0);stroke-linecap:round;fill:none;" />
<line x1='1754.9' y1='2856.3' x2='1755.4' y2='2859.2' style="stroke-width:1.0;stroke:rgb(0,0,0);stroke-linecap:round;fill:none;" />
<line x1='1617.1' y1='2875.0' x2='1617.3' y2='2878.0' style="stroke-width:1.0;stroke:rgb(0,0,0);stroke-linecap:round;fill:none;" />
<line x1='1478.1' y1='2879.8' x2='1477.9' y2='2889.8' style="stroke-width:1.0;stroke:rgb(0,0,0);stroke-linecap:round;fill:none;" />
<text x="1498.4" y="2893.0" font-size="58.5px" font-family="CMUBright-Roman" style="text-anchor:end;fill:rgb(0,0,0);" transform="rotate(-89.1,1498.4,2893.0)" >1</text>
<path d="M2135.503,2696.729 A1355.000,1355.000 40.000 0,1 1409.058,2851.945 L1407.380,2876.888 A1380.000,1380.000 0.000 0,0 2147.228,2718.809 Z" style="stroke-width:1.0;stroke:rgb(82,82,82);stroke-linecap:round;fill:none;" />
<g id="highlighttrack_0">
<path d="M843.825,2446.553 A1151.750,1151.750 40.000 0,1 842.505,2445.636 L765.152,2556.888 A1287.250,1287.250 0.000 0,0 766.628,2557.912 Z" style="stroke-width:3.0;stroke:rgb(0,0,0);stroke-linecap:round;fill:rgb(0,0,0);" />
<path d="M821.314,2430.545 A1151.750,1151.750 40.000 0,1 820.014,2429.595 L740.016,2538.960 A1287.250,1287.250 0.000 0,0 741.468,2540.020 Z" style="stroke-width:3.0;stroke:rgb(0,0,0);stroke-linecap:round;fill:rgb(0,0,0);" />
<path d="M849.437,2450.419 A1151.750,1151.750 40.000 0,1 848.840,2450.010 L772.232,2561.775 A1287.250,1287.250 0.000 0,0 772.900,2562.233 Z" style="stroke-width:3.0;stroke:rgb(0,0,0);stroke-linecap:round;fill:rgb(0,0,0);" />
<path d="M850.919,2451.432 A1151.750,1151.750 40.000 0,1 850.361,2451.051 L773.933,2562.939 A1287.250,1287.250 0.000 0,0 774.557,2563.365 Z" style="stroke-width:3.0;stroke:rgb(0,0,0);stroke-linecap:round;fill:rgb(0,0,0);" />
<path d="M847.946,2449.397 A1151.750,1151.750 40.000 0,1 847.405,2449.024 L770.629,2560.674 A1287.250,1287.250 0.000 0,0 771.234,2561.090 Z" style="stroke-width:3.0;stroke:rgb(0,0,0);stroke-linecap:round;fill:rgb(0,0,0);" />
</g>
<g id="highlighttrack_1">
<path d="M1307.444,2635.540 A1151.750,1151.750 40.000 0,1 1306.328,2635.350 L1283.543,2768.920 A1287.250,1287.250 0.000 0,0 1284.790,2769.133 Z" style="stroke-width:3.0;stroke:rgb(251,106,74);stroke-linecap:round;fill:rgb(251,106,74);" />
<path d="M751.900,2375.713 A1151.750,1151.750 40.000 0,1 751.100,2375.029 L662.994,2477.974 A1287.250,1287.250 0.000 0,0 663.888,2478.738 Z" style="stroke-width:3.0;stroke:rgb(251,106,74);stroke-linecap:round;fill:rgb(251,106,74);" />
</g>
<path d="M1273.464,2835.929 A1355.000,1355.000 40.000 0,1 618.941,2529.446 L602.685,2548.440 A1380.000,1380.000 0.000 0,0 1269.284,2860.577 Z" style="stroke-width:1.0;stroke:rgb(82,82,82);stroke-linecap:round;fill:rgb(189,189,189);" />
<text x="864.4" y="2857.3" font-size="45.5px" font-family="CMUBright-Bold" style="text-anchor:middle;fill:rgb(0,0,0);" transform="rotate(25.1,864.4,2857.3)" >EMMER<tspan baseline-shift="-40%" font-size="90%">1</tspan>A</text>
<line x1='1269.3' y1='2860.6' x2='1267.6' y2='2870.4' style="stroke-width:1.0;stroke:rgb(0,0,0);stroke-linecap:round;fill:none;" />
<text x="1288.3" y="2876.8" font-size="58.5px" font-family="CMUBright-Roman" style="text-anchor:end;fill:rgb(0,0,0);" transform="rotate(-80.4,1288.3,2876.8)" >0</text>
<line x1='1133.5' y1='2830.5' x2='1132.7' y2='2833.3' style="stroke-width:1.0;stroke:rgb(0,0,0);stroke-linecap:round;fill:none;" />
<line x1='1001.5' y1='2786.8' x2='1000.4' y2='2789.6' style="stroke-width:1.0;stroke:rgb(0,0,0);stroke-linecap:round;fill:none;" />
<line x1='874.5' y1='2730.1' x2='873.2' y2='2732.8' style="stroke-width:1.0;stroke:rgb(0,0,0);stroke-linecap:round;fill:none;" />
<line x1='753.9' y1='2660.9' x2='752.3' y2='2663.4' style="stroke-width:1.0;stroke:rgb(0,0,0);stroke-linecap:round;fill:none;" />
<line x1='640.9' y1='2579.9' x2='634.6' y2='2587.8' style="stroke-width:1.0;stroke:rgb(0,0,0);stroke-linecap:round;fill:none;" />
<text x="648.9" y="2602.8" font-size="58.5px" font-family="CMUBright-Roman" style="text-anchor:end;fill:rgb(0,0,0);" transform="rotate(-51.5,648.9,2602.8)" >1</text>
<path d="M1273.464,2835.929 A1355.000,1355.000 40.000 0,1 618.941,2529.446 L602.685,2548.440 A1380.000,1380.000 0.000 0,0 1269.284,2860.577 Z" style="stroke-width:1.0;stroke:rgb(82,82,82);stroke-linecap:round;fill:none;" />
<g id="highlighttrack_0">
<path d="M402.319,1848.748 A1151.750,1151.750 40.000 0,1 401.837,1847.225 L272.641,1888.075 A1287.250,1287.250 0.000 0,0 273.180,1889.777 Z" style="stroke-width:3.0;stroke:rgb(0,0,0);stroke-linecap:round;fill:rgb(0,0,0);" />
<path d="M399.534,1839.857 A1151.750,1151.750 40.000 0,1 399.082,1838.389 L269.562,1878.199 A1287.250,1287.250 0.000 0,0 270.068,1879.841 Z" style="stroke-width:3.0;stroke:rgb(0,0,0);stroke-linecap:round;fill:rgb(0,0,0);" />
</g>
<g id="highlighttrack_1">
<path d="M579.463,2192.199 A1151.750,1151.750 40.000 0,1 578.506,2190.925 L470.095,2272.210 A1287.250,1287.250 0.000 0,0 471.164,2273.634 Z" style="stroke-width:3.0;stroke:rgb(251,106,74);stroke-linecap:round;fill:rgb(251,106,74);" />
<path d="M666.841,2295.220 A1151.750,1151.750 40.000 0,1 665.731,2294.055 L567.582,2387.473 A1287.250,1287.250 0.000 0,0 568.822,2388.775 Z" style="stroke-width:3.0;stroke:rgb(251,106,74);stroke-linecap:round;fill:rgb(251,106,74);" />
<path d="M476.481,2028.145 A1151.750,1151.750 40.000 0,1 475.819,2026.861 L355.328,2088.844 A1287.250,1287.250 0.000 0,0 356.067,2090.280 Z" style="stroke-width:3.0;stroke:rgb(251,106,74);stroke-linecap:round;fill:rgb(251,106,74);" />
<path d="M572.700,2183.112 A1151.750,1151.750 40.000 0,1 572.359,2182.650 L463.225,2262.962 A1287.250,1287.250 0.000 0,0 463.606,2263.478 Z" style="stroke-width:3.0;stroke:rgb(251,106,74);stroke-linecap:round;fill:rgb(251,106,74);" />
</g>
<path d="M519.814,2435.553 A1355.000,1355.000 40.000 0,1 204.802,1898.105 L180.905,1905.450 A1380.000,1380.000 0.000 0,0 501.729,2452.814 Z" style="stroke-width:1.0;stroke:rgb(82,82,82);stroke-linecap:round;fill:rgb(188,189,220);" />
<text x="207.0" y="2257.9" font-size="45.5px" font-family="CMUBright-Bold" style="text-anchor:middle;fill:rgb(0,0,0);" transform="rotate(59.6,207.0,2257.9)" >EMMER<tspan baseline-shift="-40%" font-size="90%">1</tspan>B</text>
<line x1='501.7' y1='2452.8' x2='494.5' y2='2459.7' style="stroke-width:1.0;stroke:rgb(0,0,0);stroke-linecap:round;fill:none;" />
<text x="507.3" y="2477.2" font-size="58.5px" font-family="CMUBright-Roman" style="text-anchor:end;fill:rgb(0,0,0);" transform="rotate(-43.7,507.3,2477.2)" >0</text>
<line x1='410.9' y1='2347.5' x2='408.5' y2='2349.4' style="stroke-width:1.0;stroke:rgb(0,0,0);stroke-linecap:round;fill:none;" />
<line x1='331.1' y1='2233.6' x2='328.6' y2='2235.2' style="stroke-width:1.0;stroke:rgb(0,0,0);stroke-linecap:round;fill:none;" />
<line x1='263.3' y1='2112.3' x2='260.6' y2='2113.6' style="stroke-width:1.0;stroke:rgb(0,0,0);stroke-linecap:round;fill:none;" />
<line x1='207.9' y1='1984.7' x2='205.1' y2='1985.7' style="stroke-width:1.0;stroke:rgb(0,0,0);stroke-linecap:round;fill:none;" />
<path d="M519.814,2435.553 A1355.000,1355.000 40.000 0,1 204.802,1898.105 L180.905,1905.450 A1380.000,1380.000 0.000 0,0 501.729,2452.814 Z" style="stroke-width:1.0;stroke:rgb(82,82,82);stroke-linecap:round;fill:none;" />
<g id="highlighttrack_0">
<path d="M351.024,1579.882 A1151.750,1151.750 40.000 0,1 350.915,1578.303 L215.728,1587.515 A1287.250,1287.250 0.000 0,0 215.850,1589.280 Z" style="stroke-width:3.0;stroke:rgb(0,0,0);stroke-linecap:round;fill:rgb(0,0,0);" />
<path d="M348.379,1482.756 A1151.750,1151.750 40.000 0,1 348.404,1481.159 L212.922,1478.942 A1287.250,1287.250 0.000 0,0 212.894,1480.728 Z" style="stroke-width:3.0;stroke:rgb(0,0,0);stroke-linecap:round;fill:rgb(0,0,0);" />
<path d="M355.696,1630.750 A1151.750,1151.750 40.000 0,1 355.535,1629.336 L220.892,1644.553 A1287.250,1287.250 0.000 0,0 221.072,1646.132 Z" style="stroke-width:3.0;stroke:rgb(0,0,0);stroke-linecap:round;fill:rgb(0,0,0);" />
</g>
<g id="highlighttrack_1">
<path d="M577.517,810.396 A1151.750,1151.750 40.000 0,1 578.481,809.108 L470.067,727.827 A1287.250,1287.250 0.000 0,0 468.990,729.266 Z" style="stroke-width:3.0;stroke:rgb(251,106,74);stroke-linecap:round;fill:rgb(251,106,74);" />
<path d="M370.616,1725.878 A1151.750,1151.750 40.000 0,1 370.302,1724.298 L237.396,1750.686 A1287.250,1287.250 0.000 0,0 237.748,1752.451 Z" style="stroke-width:3.0;stroke:rgb(251,106,74);stroke-linecap:round;fill:rgb(251,106,74);" />
<path d="M597.733,784.149 A1151.750,1151.750 40.000 0,1 598.426,783.276 L492.359,698.956 A1287.250,1287.250 0.000 0,0 491.584,699.931 Z" style="stroke-width:3.0;stroke:rgb(251,106,74);stroke-linecap:round;fill:rgb(251,106,74);" />
</g>
<path d="M171.313,1765.739 A1355.000,1355.000 40.000 0,1 439.325,656.796 L419.755,641.238 A1380.000,1380.000 0.000 0,0 146.799,1770.642 Z" style="stroke-width:1.0;stroke:rgb(82,82,82);stroke-linecap:round;fill:rgb(255,204,204);" />
<text x="92.8" y="1159.9" font-size="45.5px" font-family="CMUBright-Bold" style="text-anchor:middle;fill:rgb(0,0,0);" transform="rotate(-76.4,92.8,1159.9)" >BARLEY<tspan baseline-shift="-40%" font-size="90%">1</tspan>H</text>
<line x1='146.8' y1='1770.6' x2='137.0' y2='1772.6' style="stroke-width:1.0;stroke:rgb(0,0,0);stroke-linecap:round;fill:none;" />
<text x="138.4" y="1794.2" font-size="58.5px" font-family="CMUBright-Roman" style="text-anchor:end;fill:rgb(0,0,0);" transform="rotate(-11.3,138.4,1794.2)" >0</text>
<line x1='126.4' y1='1633.1' x2='123.4' y2='1633.4' style="stroke-width:1.0;stroke:rgb(0,0,0);stroke-linecap:round;fill:none;" />
<line x1='120.0' y1='1494.2' x2='117.0' y2='1494.2' style="stroke-width:1.0;stroke:rgb(0,0,0);stroke-linecap:round;fill:none;" />
<line x1='127.6' y1='1355.3' x2='124.6' y2='1355.0' style="stroke-width:1.0;stroke:rgb(0,0,0);stroke-linecap:round;fill:none;" />
<line x1='149.1' y1='1218.0' x2='146.2' y2='1217.3' style="stroke-width:1.0;stroke:rgb(0,0,0);stroke-linecap:round;fill:none;" />
<line x1='184.4' y1='1083.4' x2='174.8' y2='1080.4' style="stroke-width:1.0;stroke:rgb(0,0,0);stroke-linecap:round;fill:none;" />
<text x="165.9" y="1099.1" font-size="58.5px" font-family="CMUBright-Roman" style="text-anchor:end;fill:rgb(0,0,0);" transform="rotate(17.6,165.9,1099.1)" >1</text>
<line x1='233.0' y1='953.2' x2='230.2' y2='952.0' style="stroke-width:1.0;stroke:rgb(0,0,0);stroke-linecap:round;fill:none;" />
<line x1='294.4' y1='828.4' x2='291.8' y2='827.0' style="stroke-width:1.0;stroke:rgb(0,0,0);stroke-linecap:round;fill:none;" />
<line x1='368.1' y1='710.5' x2='365.7' y2='708.8' style="stroke-width:1.0;stroke:rgb(0,0,0);stroke-linecap:round;fill:none;" />
<path d="M171.313,1765.739 A1355.000,1355.000 40.000 0,1 439.325,656.796 L419.755,641.238 A1380.000,1380.000 0.000 0,0 146.799,1770.642 Z" style="stroke-width:1.0;stroke:rgb(82,82,82);stroke-linecap:round;fill:none;" />
<g id="highlighttrack_0">
<path d="M1482.832,348.378 A1151.750,1151.750 40.000 0,1 1484.405,348.356 L1482.570,212.868 A1287.250,1287.250 0.000 0,0 1480.812,212.893 Z" style="stroke-width:3.0;stroke:rgb(0,0,0);stroke-linecap:round;fill:rgb(0,0,0);" />
</g>
<g id="highlighttrack_1">
<path d="M675.133,696.183 A1151.750,1151.750 40.000 0,1 676.246,695.042 L579.333,600.342 A1287.250,1287.250 0.000 0,0 578.089,601.616 Z" style="stroke-width:3.0;stroke:rgb(251,106,74);stroke-linecap:round;fill:rgb(251,106,74);" />
</g>
<path d="M529.567,554.333 A1355.000,1355.000 40.000 0,1 1481.652,145.124 L1481.314,120.127 A1380.000,1380.000 0.000 0,0 511.663,536.886 Z" style="stroke-width:1.0;stroke:rgb(82,82,82);stroke-linecap:round;fill:rgb(204,255,255);" />
<text x="928.3" y="169.9" font-size="45.5px" font-family="CMUBright-Bold" style="text-anchor:middle;fill:rgb(0,0,0);" transform="rotate(-23.3,928.3,169.9)" >BRACHYPODIUM<tspan baseline-shift="-40%" font-size="90%">C</tspan>HR2</text>
<line x1='511.7' y1='536.9' x2='504.5' y2='529.9' style="stroke-width:1.0;stroke:rgb(0,0,0);stroke-linecap:round;fill:none;" />
<text x="487.5" y="543.3" font-size="58.5px" font-family="CMUBright-Roman" style="text-anchor:end;fill:rgb(0,0,0);" transform="rotate(44.3,487.5,543.3)" >0</text>
<line x1='613.6' y1='442.3' x2='611.7' y2='440.0' style="stroke-width:1.0;stroke:rgb(0,0,0);stroke-linecap:round;fill:none;" />
<line x1='724.5' y1='358.5' x2='722.9' y2='356.0' style="stroke-width:1.0;stroke:rgb(0,0,0);stroke-linecap:round;fill:none;" />
<line x1='843.4' y1='286.2' x2='841.9' y2='283.6' style="stroke-width:1.0;stroke:rgb(0,0,0);stroke-linecap:round;fill:none;" />
<line x1='968.8' y1='226.3' x2='967.7' y2='223.5' style="stroke-width:1.0;stroke:rgb(0,0,0);stroke-linecap:round;fill:none;" />
<line x1='1099.7' y1='179.3' x2='1096.8' y2='169.8' style="stroke-width:1.0;stroke:rgb(0,0,0);stroke-linecap:round;fill:none;" />
<text x="1076.4" y="173.0" font-size="58.5px" font-family="CMUBright-Roman" style="text-anchor:end;fill:rgb(0,0,0);" transform="rotate(73.1,1076.4,173.0)" >1</text>
<line x1='1234.7' y1='145.7' x2='1234.1' y2='142.8' style="stroke-width:1.0;stroke:rgb(0,0,0);stroke-linecap:round;fill:none;" />
<line x1='1372.3' y1='125.9' x2='1372.0' y2='122.9' style="stroke-width:1.0;stroke:rgb(0,0,0);stroke-linecap:round;fill:none;" />
<path d="M529.567,554.333 A1355.000,1355.000 40.000 0,1 1481.652,145.124 L1481.314,120.127 A1380.000,1380.000 0.000 0,0 511.663,536.886 Z" style="stroke-width:1.0;stroke:rgb(82,82,82);stroke-linecap:round;fill:none;" />
</g>
<g id="track_0">
<path d="M 1600.0,366.2 L 1597.0,409.3 1595.8,453.1 1596.2,497.4 1598.3,542.2 1602.2,587.2 1607.9,632.4 1615.4,677.6 1624.7,722.8 1635.8,767.7 1648.8,812.2 1663.5,856.3 1680.1,899.9 1698.4,942.9 1718.5,985.1 1740.3,1026.4 1763.9,1066.9 1789.1,1106.3 1816.0,1144.6 1844.5,1181.8 1874.5,1217.7 1906.0,1252.4 1939.0,1285.7 1973.3,1317.5 2008.8,1347.9 2045.6,1376.8 2083.6,1404.1 2122.6,1429.8 2162.5,1453.8 2203.3,1476.2 2244.8,1496.9 2287.0,1515.8 2329.8,1533.0 2372.9,1548.4 2416.4,1562.1 2460.0,1574.0 2503.7,1584.1 2547.2,1592.4 2590.5,1598.9 2633.5,1603.7  " style="stroke-opacity: 1.000000; stroke-width: 4.0; stroke: rgb(171,221,164); fill: none"  />
<path d="M 2595.6,1808.6 L 2553.2,1795.8 2510.7,1781.1 2468.1,1764.6 2425.6,1746.3 2383.2,1726.2 2341.2,1704.3 2299.5,1680.8 2258.3,1655.5 2217.7,1628.6 2177.8,1600.1 2138.7,1570.1 2100.4,1538.5 2063.1,1505.5 2026.8,1471.1 1991.7,1435.3 1957.6,1398.3 1924.9,1360.0 1893.4,1320.5 1863.3,1280.0 1834.6,1238.4 1807.3,1195.8 1781.6,1152.4 1757.4,1108.2 1734.8,1063.2 1713.9,1017.7 1694.6,971.5 1676.9,924.9 1661.0,878.0 1646.8,830.7 1634.3,783.3 1623.5,735.8 1614.5,688.4 1607.3,641.0 1601.8,594.0 1598.0,547.2 1595.9,501.0 1595.6,455.3 1597.0,410.3 1600.0,366.2  " style="stroke-opacity: 1.000000; stroke-width: 4.0; stroke: rgb(171,221,164); fill: none"  />
<path d="M 1600.0,366.2 L 1597.0,410.2 1595.6,455.1 1596.0,500.6 1598.0,546.7 1601.8,593.2 1607.4,640.1 1614.7,687.2 1623.7,734.5 1634.5,781.7 1647.1,828.8 1661.4,875.7 1677.4,922.3 1695.2,968.6 1714.6,1014.3 1735.7,1059.4 1758.4,1103.9 1782.8,1147.7 1808.7,1190.6 1836.1,1232.6 1865.0,1273.6 1895.3,1313.5 1927.0,1352.4 1960.0,1390.0 1994.2,1426.4 2029.6,1461.4 2066.1,1495.1 2103.7,1527.4 2142.2,1558.2 2181.5,1587.4 2221.7,1615.1 2262.5,1641.2 2303.9,1665.6 2345.8,1688.4 2388.1,1709.4 2430.7,1728.6 2473.4,1746.1 2516.1,1761.7 2558.8,1775.6 2601.3,1787.6  " style="stroke-opacity: 1.000000; stroke-width: 4.0; stroke: rgb(43,131,186); fill: none"  />
<path d="M 2633.0,1608.9 L 2590.0,1603.9 2546.7,1597.2 2503.2,1588.7 2459.5,1578.4 2415.9,1566.3 2372.5,1552.4 2329.3,1536.8 2286.6,1519.4 2244.4,1500.2 2202.9,1479.4 2162.2,1456.8 2122.2,1432.6 2083.3,1406.7 2045.4,1379.2 2008.6,1350.2 1973.0,1319.6 1938.8,1287.6 1905.9,1254.1 1874.4,1219.3 1844.4,1183.2 1815.9,1145.9 1789.1,1107.4 1763.8,1067.9 1740.3,1027.4 1718.4,985.9 1698.3,943.6 1680.0,900.6 1663.5,856.9 1648.7,812.7 1635.8,768.0 1624.7,723.1 1615.4,677.9 1607.9,632.6 1602.2,587.4 1598.3,542.3 1596.2,497.5 1595.8,453.1 1597.0,409.3 1600.0,366.2  " style="stroke-opacity: 1.000000; stroke-width: 4.0; stroke: rgb(43,131,186); fill: none"  />
<path d="M 1600.4,366.2 L 1597.4,410.5 1596.0,455.6 1596.3,501.5 1598.3,547.9 1602.0,594.9 1607.4,642.2 1614.6,689.8 1623.6,737.5 1634.2,785.3 1646.6,833.1 1660.7,880.7 1676.5,928.1 1694.0,975.1 1713.1,1021.8 1733.9,1067.9 1756.3,1113.4 1780.3,1158.2 1805.8,1202.2 1832.7,1245.4 1861.2,1287.7 1891.0,1329.0 1922.2,1369.2 1954.7,1408.3 1988.4,1446.2 2023.3,1482.8 2059.3,1518.1 2096.2,1552.0 2134.2,1584.5 2173.0,1615.5 2212.6,1645.0 2252.8,1672.9 2293.7,1699.1 2335.1,1723.7 2376.9,1746.6 2418.9,1767.7 2461.2,1787.1 2503.6,1804.6 2545.9,1820.4 2588.0,1834.2  " style="stroke-opacity: 1.000000; stroke-width: 4.0; stroke: rgb(43,131,186); fill: none"  />
<path d="M 1599.7,366.2 L 1596.8,409.7 1595.5,454.0 1595.9,498.9 1598.0,544.3 1601.9,590.1 1607.6,636.1 1615.0,682.2 1624.2,728.3 1635.2,774.4 1648.1,820.2 1662.7,865.6 1679.0,910.7 1697.2,955.2 1717.0,999.1 1738.6,1042.3 1761.9,1084.7 1786.8,1126.2 1813.3,1166.8 1841.4,1206.3 1871.0,1244.7 1902.0,1281.9 1934.5,1317.9 1968.3,1352.6 2003.4,1385.9 2039.6,1417.7 2077.0,1448.1 2115.5,1477.0 2154.9,1504.3 2195.1,1530.0 2236.1,1554.1 2277.8,1576.5 2320.1,1597.1 2362.8,1616.1 2405.9,1633.3 2449.1,1648.7 2492.5,1662.3 2535.8,1674.2 2579.0,1684.2 2621.8,1692.4  " style="stroke-opacity: 1.000000; stroke-width: 4.0; stroke: rgb(171,221,164); fill: none"  />
<path d="M 1600.0,366.2 L 1597.1,407.0 1595.7,448.2 1595.8,489.5 1597.4,530.7 1600.7,571.7 1605.6,612.2 1612.1,652.2 1620.4,691.4 1630.4,729.7 1642.2,767.0 1655.6,803.2 1670.8,838.0 1687.8,871.5 1706.5,903.5 1726.8,933.8 1748.9,962.5 1772.5,989.5 1797.8,1014.6 1824.7,1037.8 1853.0,1059.1 1882.8,1078.3 1914.0,1095.6 1946.5,1110.8 1980.2,1124.0 2015.0,1135.0 2050.9,1144.0 2087.8,1150.9 2125.5,1155.8 2164.0,1158.6 2203.1,1159.4 2242.7,1158.3 2282.7,1155.3 2322.9,1150.5 2363.2,1143.8 2403.4,1135.5 2443.5,1125.6 2483.1,1114.1 2522.2,1101.2 2560.6,1087.0  " style="stroke-opacity: 1.000000; stroke-width: 4.0; stroke: rgb(171,221,164); fill: none"  />
<path d="M 2266.8,658.9 L 2239.9,687.6 2212.4,715.7 2184.4,742.8 2156.0,768.7 2127.4,793.3 2098.7,816.4 2070.0,837.9 2041.4,857.5 2013.1,875.3 1985.1,890.9 1957.6,904.4 1930.7,915.7 1904.3,924.6 1878.7,931.0 1853.9,935.1 1829.9,936.6 1806.9,935.5 1784.9,931.9 1763.9,925.8 1744.0,917.0 1725.3,905.8 1707.7,892.0 1691.4,875.7 1676.2,857.1 1662.4,836.1 1649.8,812.8 1638.6,787.4 1628.6,760.0 1619.9,730.6 1612.5,699.4 1606.3,666.6 1601.5,632.2 1597.8,596.6 1595.4,559.8 1594.2,522.1 1594.0,483.6 1595.0,444.7 1597.0,405.5 1600.0,366.2  " style="stroke-opacity: 1.000000; stroke-width: 4.0; stroke: rgb(171,221,164); fill: none"  />
<path d="M 2512.9,980.9 L 2476.6,998.8 2439.5,1015.5 2401.8,1030.9 2363.7,1044.8 2325.4,1057.2 2287.0,1068.0 2248.7,1077.0 2210.6,1084.1 2172.8,1089.3 2135.5,1092.6 2098.8,1093.8 2062.7,1092.9 2027.5,1089.9 1993.2,1084.7 1960.0,1077.4 1927.8,1067.8 1896.8,1056.1 1867.0,1042.2 1838.6,1026.2 1811.6,1008.0 1786.0,987.7 1762.0,965.4 1739.5,941.1 1718.5,914.8 1699.2,886.8 1681.5,856.9 1665.4,825.4 1651.1,792.4 1638.4,757.9 1627.3,722.1 1618.0,685.2 1610.3,647.1 1604.2,608.3 1599.7,568.6 1596.8,528.5 1595.4,488.0 1595.4,447.3 1597.0,406.6 1599.8,366.2  " style="stroke-opacity: 1.000000; stroke-width: 4.0; stroke: rgb(171,221,164); fill: none"  />
<path d="M 2259.9,652.6 L 2233.3,681.6 2206.0,709.8 2178.2,737.1 2150.1,763.3 2121.8,788.2 2093.3,811.5 2064.9,833.2 2036.6,853.1 2008.5,871.1 1980.8,887.0 1953.6,900.7 1926.9,912.2 1900.8,921.3 1875.4,928.0 1850.8,932.3 1827.1,934.0 1804.3,933.2 1782.5,929.8 1761.7,923.8 1742.0,915.2 1723.4,904.2 1706.0,890.5 1689.9,874.5 1674.9,855.9 1661.2,835.1 1648.8,812.0 1637.6,786.7 1627.7,759.3 1619.1,730.1 1611.8,699.0 1605.8,666.2 1601.0,631.9 1597.4,596.4 1595.0,559.6 1593.8,521.9 1593.7,483.5 1594.7,444.6 1596.7,405.4 1599.6,366.2  " style="stroke-opacity: 1.000000; stroke-width: 4.0; stroke: rgb(43,131,186); fill: none"  />
<path d="M 2258.7,651.6 L 2232.2,680.6 2205.0,708.9 2177.2,736.2 2149.2,762.4 2120.9,787.3 2092.5,810.7 2064.1,832.5 2035.8,852.4 2007.8,870.4 1980.2,886.3 1953.0,900.1 1926.3,911.6 1900.3,920.8 1874.9,927.5 1850.4,931.8 1826.7,933.6 1804.0,932.8 1782.2,929.4 1761.5,923.5 1741.8,915.0 1723.3,903.9 1706.0,890.3 1689.8,874.3 1674.9,855.8 1661.3,835.0 1648.9,811.9 1637.8,786.6 1627.9,759.3 1619.4,730.0 1612.1,698.9 1606.1,666.2 1601.3,631.9 1597.8,596.4 1595.4,559.6 1594.2,522.0 1594.1,483.6 1595.1,444.6 1597.2,405.4 1600.2,366.2  " style="stroke-opacity: 1.000000; stroke-width: 4.0; stroke: rgb(43,131,186); fill: none"  />
<path d="M 1600.0,366.2 L 1595.0,415.9 1588.6,466.4 1580.9,517.7 1572.1,569.8 1562.1,622.7 1551.1,676.1 1539.0,730.2 1526.1,784.9 1512.2,840.1 1497.5,895.7 1482.0,951.8 1465.8,1008.2 1448.9,1064.9 1431.3,1121.8 1413.2,1179.0 1394.5,1236.2 1375.2,1293.5 1355.5,1350.8 1335.2,1408.0 1314.5,1465.1 1293.4,1522.1 1271.9,1578.7 1250.0,1635.1 1227.8,1691.0 1205.1,1746.5 1182.2,1801.5 1158.9,1855.9 1135.2,1909.6 1111.2,1962.6 1086.9,2014.7 1062.2,2066.0 1037.2,2116.3 1011.8,2165.6 986.0,2213.7 959.8,2260.7 933.3,2306.4 906.3,2350.7 878.8,2393.6 850.9,2435.0  " style="stroke-opacity: 1.000000; stroke-width: 4.0; stroke: rgb(171,221,164); fill: none"  />
<path d="M 1600.0,366.2 L 1595.0,415.7 1588.6,466.1 1580.9,517.2 1572.0,569.2 1561.9,621.8 1550.7,675.1 1538.5,729.0 1525.3,783.5 1511.2,838.5 1496.3,893.9 1480.5,949.7 1463.9,1005.9 1446.6,1062.4 1428.6,1119.0 1410.0,1175.9 1390.8,1232.8 1371.0,1289.8 1350.7,1346.8 1329.9,1403.7 1308.5,1460.4 1286.7,1517.0 1264.5,1573.2 1241.9,1629.2 1218.9,1684.7 1195.4,1739.7 1171.6,1794.2 1147.5,1848.1 1123.0,1901.3 1098.1,1953.7 1072.8,2005.2 1047.3,2055.9 1021.3,2105.6 995.0,2154.2 968.3,2201.7 941.2,2247.9 913.7,2292.9 885.8,2336.5 857.5,2378.6 828.7,2419.1  " style="stroke-opacity: 1.000000; stroke-width: 4.0; stroke: rgb(171,221,164); fill: none"  />
<path d="M 1599.8,366.2 L 1594.7,418.9 1588.8,472.4 1582.1,526.6 1574.8,581.5 1567.0,637.0 1558.8,693.2 1550.2,749.9 1541.3,807.2 1532.2,864.9 1523.1,923.2 1513.8,981.8 1504.6,1040.9 1495.4,1100.3 1486.3,1160.0 1477.4,1220.0 1468.6,1280.2 1460.1,1340.7 1451.7,1401.2 1443.7,1461.9 1435.8,1522.6 1428.3,1583.3 1421.0,1644.0 1414.0,1704.6 1407.2,1765.1 1400.6,1825.4 1394.3,1885.5 1388.1,1945.3 1382.1,2004.8 1376.1,2063.8 1370.3,2122.5 1364.4,2180.7 1358.4,2238.3 1352.4,2295.4 1346.1,2351.8 1339.6,2407.5 1332.8,2462.4 1325.5,2516.5 1317.6,2569.8 1309.2,2622.1  " style="stroke-opacity: 1.000000; stroke-width: 4.0; stroke: rgb(171,221,164); fill: none"  />
<path d="M 760.3,2365.1 L 791.8,2327.2 822.8,2287.7 853.5,2246.7 883.8,2204.2 913.7,2160.4 943.2,2115.2 972.4,2068.8 1001.2,2021.3 1029.6,1972.7 1057.6,1923.1 1085.2,1872.6 1112.4,1821.3 1139.2,1769.2 1165.5,1716.4 1191.4,1662.9 1216.8,1609.0 1241.7,1554.5 1266.2,1499.6 1290.0,1444.4 1313.4,1388.9 1336.1,1333.2 1358.2,1277.4 1379.6,1221.5 1400.4,1165.5 1420.5,1109.7 1439.7,1053.9 1458.2,998.3 1475.9,942.9 1492.6,887.9 1508.4,833.2 1523.3,778.9 1537.1,725.1 1549.8,671.8 1561.4,619.1 1571.8,567.0 1580.9,515.6 1588.8,465.0 1595.2,415.2 1600.3,366.2  " style="stroke-opacity: 1.000000; stroke-width: 4.0; stroke: rgb(171,221,164); fill: none"  />
<path d="M 856.8,2439.0 L 884.5,2397.5 911.7,2354.4 938.5,2309.8 964.8,2264.0 990.7,2216.8 1016.2,2168.5 1041.3,2119.1 1066.1,2068.6 1090.6,2017.2 1114.6,1964.9 1138.4,1911.7 1161.8,1857.9 1184.9,1803.4 1207.7,1748.3 1230.1,1692.7 1252.1,1636.6 1273.8,1580.1 1295.1,1523.4 1316.0,1466.4 1336.5,1409.1 1356.6,1351.8 1376.2,1294.4 1395.3,1237.1 1413.9,1179.7 1431.9,1122.5 1449.3,1065.5 1466.1,1008.8 1482.2,952.3 1497.6,896.2 1512.2,840.5 1526.0,785.2 1538.9,730.5 1550.9,676.4 1561.8,622.8 1571.8,570.0 1580.6,517.8 1588.2,466.4 1594.5,415.9 1599.6,366.2  " style="stroke-opacity: 1.000000; stroke-width: 4.0; stroke: rgb(171,221,164); fill: none"  />
<path d="M 858.3,2440.1 L 885.9,2398.4 913.1,2355.3 939.8,2310.7 966.0,2264.8 991.9,2217.6 1017.3,2169.2 1042.4,2119.7 1067.1,2069.2 1091.5,2017.8 1115.6,1965.4 1139.3,1912.3 1162.6,1858.4 1185.7,1803.8 1208.4,1748.7 1230.7,1693.1 1252.7,1637.0 1274.4,1580.5 1295.7,1523.7 1316.5,1466.7 1337.0,1409.4 1357.0,1352.1 1376.6,1294.7 1395.7,1237.3 1414.2,1179.9 1432.2,1122.7 1449.7,1065.7 1466.4,1008.9 1482.5,952.5 1497.9,896.3 1512.5,840.6 1526.3,785.4 1539.2,730.6 1551.2,676.5 1562.2,622.9 1572.1,570.1 1580.9,517.9 1588.6,466.5 1594.9,415.9 1600.0,366.2  " style="stroke-opacity: 1.000000; stroke-width: 4.0; stroke: rgb(171,221,164); fill: none"  />
<path d="M 855.3,2438.0 L 883.1,2396.5 910.4,2353.5 937.2,2309.0 963.6,2263.1 989.6,2216.1 1015.1,2167.8 1040.4,2118.4 1065.2,2067.9 1089.7,2016.6 1113.9,1964.3 1137.7,1911.2 1161.2,1857.4 1184.3,1802.9 1207.2,1747.9 1229.6,1692.3 1251.7,1636.2 1273.5,1579.8 1294.9,1523.1 1315.9,1466.1 1336.4,1408.9 1356.6,1351.6 1376.2,1294.2 1395.4,1236.9 1414.0,1179.6 1432.1,1122.4 1449.6,1065.4 1466.4,1008.7 1482.6,952.2 1498.0,896.1 1512.7,840.4 1526.5,785.2 1539.5,730.5 1551.5,676.4 1562.5,622.9 1572.5,570.0 1581.3,517.9 1589.0,466.5 1595.4,415.9 1600.5,366.2  " style="stroke-opacity: 1.000000; stroke-width: 4.0; stroke: rgb(43,131,186); fill: none"  />
<path d="M 1600.0,366.2 L 1595.8,406.5 1590.1,446.9 1583.1,487.0 1574.6,526.7 1564.6,565.7 1553.3,604.0 1540.4,641.3 1526.1,677.4 1510.4,712.3 1493.2,745.7 1474.6,777.5 1454.6,807.6 1433.2,835.9 1410.4,862.3 1386.4,886.7 1361.1,909.0 1334.5,929.2 1306.8,947.1 1278.0,962.8 1248.1,976.1 1217.1,987.2 1185.3,995.9 1152.6,1002.2 1119.1,1006.1 1084.9,1007.8 1050.0,1007.1 1014.7,1004.1 978.9,998.9 942.8,991.6 906.4,982.1 870.0,970.5 833.5,957.1 797.2,941.8 761.0,924.7 725.3,906.0 690.1,885.9 655.5,864.3 621.7,841.6 588.8,817.9  " style="stroke-opacity: 1.000000; stroke-width: 4.0; stroke: rgb(171,221,164); fill: none"  />
<path d="M 1600.0,366.2 L 1595.2,410.8 1588.6,455.9 1580.3,501.6 1570.1,547.6 1558.2,593.8 1544.6,640.2 1529.2,686.7 1512.2,733.1 1493.4,779.3 1473.0,825.4 1450.9,871.0 1427.3,916.3 1402.1,961.0 1375.3,1005.1 1347.1,1048.6 1317.5,1091.3 1286.4,1133.2 1254.0,1174.1 1220.4,1214.1 1185.4,1253.0 1149.4,1290.9 1112.2,1327.5 1073.9,1362.9 1034.7,1397.0 994.5,1429.8 953.6,1461.1 911.8,1491.1 869.4,1519.5 826.4,1546.4 782.9,1571.6 738.9,1595.3 694.7,1617.3 650.1,1637.6 605.5,1656.2 560.8,1673.1 516.2,1688.1 471.7,1701.4 427.5,1712.8 383.7,1722.4  " style="stroke-opacity: 1.000000; stroke-width: 4.0; stroke: rgb(171,221,164); fill: none"  />
<path d="M 1600.0,366.2 L 1595.2,410.0 1588.7,454.3 1580.4,499.0 1570.3,543.9 1558.4,589.0 1544.8,634.1 1529.4,679.1 1512.2,723.8 1493.3,768.3 1472.7,812.3 1450.4,855.8 1426.4,898.7 1400.8,940.9 1373.7,982.3 1345.0,1022.8 1314.8,1062.4 1283.1,1100.9 1250.1,1138.3 1215.7,1174.5 1180.0,1209.5 1143.2,1243.2 1105.1,1275.5 1066.0,1306.4 1025.9,1335.8 984.8,1363.7 942.9,1390.1 900.3,1414.9 856.9,1438.0 813.0,1459.4 768.6,1479.2 723.8,1497.3 678.7,1513.6 633.4,1528.1 588.1,1540.9 542.8,1551.9 497.6,1561.2 452.8,1568.6 408.4,1574.3 364.5,1578.2  " style="stroke-opacity: 1.000000; stroke-width: 4.0; stroke: rgb(171,221,164); fill: none"  />
<path d="M 361.9,1482.2 L 405.5,1482.0 449.7,1480.1 494.4,1476.5 539.5,1471.1 584.7,1463.9 630.1,1454.9 675.5,1444.2 720.7,1431.6 765.7,1417.3 810.3,1401.2 854.4,1383.4 898.0,1363.8 940.9,1342.5 983.0,1319.5 1024.3,1294.8 1064.7,1268.6 1104.1,1240.7 1142.3,1211.3 1179.4,1180.4 1215.3,1148.1 1249.8,1114.4 1283.0,1079.4 1314.8,1043.1 1345.1,1005.7 1373.9,967.1 1401.2,927.6 1426.8,887.1 1450.8,845.8 1473.1,803.8 1493.7,761.1 1512.6,717.8 1529.8,674.1 1545.2,630.1 1558.8,585.9 1570.6,541.6 1580.6,497.4 1588.9,453.3 1595.3,409.5 1600.0,366.2  " style="stroke-opacity: 1.000000; stroke-width: 4.0; stroke: rgb(43,131,186); fill: none"  />
<path d="M 608.7,792.1 L 640.8,816.8 673.8,840.4 707.6,862.8 742.0,884.0 776.9,903.6 812.3,921.7 847.8,938.0 883.5,952.5 919.2,965.0 954.8,975.5 990.2,983.8 1025.2,990.0 1059.9,993.9 1094.0,995.5 1127.5,994.8 1160.4,991.7 1192.5,986.2 1223.7,978.4 1254.0,968.1 1283.4,955.5 1311.7,940.6 1338.9,923.3 1364.9,903.8 1389.7,882.1 1413.3,858.3 1435.7,832.4 1456.7,804.6 1476.3,774.9 1494.6,743.4 1511.5,710.4 1527.0,675.9 1541.0,640.0 1553.7,603.0 1564.9,565.0 1574.6,526.1 1583.0,486.6 1590.0,446.6 1595.5,406.4 1599.8,366.2  " style="stroke-opacity: 1.000000; stroke-width: 4.0; stroke: rgb(171,221,164); fill: none"  />
<path d="M 369.1,1628.5 L 413.0,1622.7 457.4,1615.0 502.2,1605.5 547.3,1594.3 592.4,1581.2 637.6,1566.4 682.7,1549.9 727.6,1531.6 772.2,1511.5 816.4,1489.8 860.1,1466.5 903.2,1441.5 945.6,1415.0 987.3,1386.8 1028.1,1357.2 1068.0,1326.2 1106.9,1293.7 1144.7,1259.9 1181.3,1224.7 1216.8,1188.4 1251.0,1150.8 1283.9,1112.2 1315.4,1072.5 1345.4,1031.8 1374.0,990.3 1401.1,947.9 1426.5,904.8 1450.4,861.1 1472.7,816.9 1493.3,772.1 1512.1,727.1 1529.3,681.7 1544.7,636.2 1558.4,590.7 1570.3,545.2 1580.4,499.9 1588.8,454.9 1595.3,410.3 1600.1,366.2  " style="stroke-opacity: 1.000000; stroke-width: 4.0; stroke: rgb(43,131,186); fill: none"  />
<path d="M 1600.0,366.2 L 1597.1,408.6 1595.8,451.6 1596.2,495.1 1598.3,538.9 1602.2,582.8 1607.9,626.7 1615.3,670.4 1624.6,713.9 1635.7,757.0 1648.6,799.6 1663.4,841.6 1680.0,882.8 1698.4,923.1 1718.6,962.6 1740.6,1000.9 1764.3,1038.2 1789.7,1074.2 1816.8,1109.0 1845.5,1142.4 1875.8,1174.3 1907.6,1204.8 1940.8,1233.8 1975.5,1261.1 2011.4,1286.8 2048.5,1310.8 2086.8,1333.1 2126.1,1353.7 2166.3,1372.5 2207.4,1389.5 2249.2,1404.8 2291.7,1418.2 2334.6,1429.8 2377.9,1439.6 2421.4,1447.6 2465.0,1453.9 2508.6,1458.4 2552.0,1461.1 2595.0,1462.2 2637.6,1461.6  " style="stroke-opacity: 1.000000; stroke-width: 4.0; stroke: rgb(171,221,164); fill: none"  />
<path d="M 2616.1,1277.0 L 2575.1,1284.4 2533.4,1290.3 2491.2,1294.6 2448.8,1297.3 2406.2,1298.2 2363.6,1297.5 2321.2,1294.9 2279.1,1290.5 2237.4,1284.3 2196.3,1276.1 2155.8,1266.1 2116.2,1254.1 2077.5,1240.3 2039.8,1224.5 2003.2,1206.8 1967.8,1187.3 1933.6,1165.9 1900.9,1142.7 1869.6,1117.7 1839.7,1090.9 1811.5,1062.5 1784.8,1032.5 1759.8,1000.9 1736.5,967.9 1715.0,933.4 1695.2,897.6 1677.2,860.7 1661.0,822.6 1646.6,783.5 1634.0,743.5 1623.3,702.7 1614.3,661.3 1607.1,619.4 1601.7,577.2 1598.1,534.8 1596.1,492.3 1595.8,449.9 1597.1,407.8 1600.0,366.2  " style="stroke-opacity: 1.000000; stroke-width: 4.0; stroke: rgb(171,221,164); fill: none"  />
<path d="M 1599.9,366.2 L 1597.0,408.7 1595.8,451.9 1596.2,495.5 1598.3,539.5 1602.2,583.6 1607.9,627.7 1615.3,671.7 1624.6,715.5 1635.8,759.0 1648.7,801.9 1663.5,844.3 1680.1,885.9 1698.5,926.7 1718.8,966.7 1740.7,1005.6 1764.5,1043.4 1789.9,1080.1 1817.0,1115.5 1845.7,1149.6 1876.0,1182.3 1907.7,1213.5 1941.0,1243.3 1975.6,1271.4 2011.5,1298.0 2048.6,1322.9 2086.8,1346.1 2126.1,1367.7 2166.4,1387.4 2207.5,1405.4 2249.3,1421.6 2291.7,1436.1 2334.7,1448.7 2378.0,1459.5 2421.6,1468.6 2465.2,1475.9 2508.9,1481.4 2552.4,1485.2 2595.5,1487.2 2638.1,1487.6  " style="stroke-opacity: 1.000000; stroke-width: 4.0; stroke: rgb(171,221,164); fill: none"  />
<path d="M 2597.2,1197.4 L 2557.2,1207.7 2516.4,1216.5 2475.1,1223.8 2433.5,1229.6 2391.7,1233.7 2350.0,1236.0 2308.3,1236.5 2266.9,1235.3 2225.9,1232.1 2185.5,1227.0 2145.7,1220.0 2106.7,1211.0 2068.6,1200.0 2031.5,1187.1 1995.4,1172.2 1960.6,1155.3 1927.0,1136.5 1894.8,1115.8 1864.0,1093.2 1834.6,1068.7 1806.8,1042.5 1780.6,1014.5 1756.1,984.9 1733.2,953.6 1712.0,920.9 1692.6,886.7 1675.0,851.2 1659.1,814.4 1645.1,776.6 1632.8,737.7 1622.3,698.0 1613.6,657.5 1606.6,616.4 1601.4,574.9 1597.8,533.0 1596.0,491.1 1595.8,449.2 1597.1,407.5 1600.0,366.2  " style="stroke-opacity: 1.000000; stroke-width: 4.0; stroke: rgb(43,131,186); fill: none"  />
<path d="M 1600.1,366.2 L 1597.2,408.3 1596.0,450.9 1596.3,493.9 1598.4,537.1 1602.2,580.3 1607.8,623.5 1615.1,666.4 1624.3,709.0 1635.3,751.1 1648.1,792.5 1662.8,833.3 1679.2,873.1 1697.5,912.0 1717.6,949.8 1739.5,986.5 1763.1,1021.9 1788.5,1056.0 1815.4,1088.7 1844.1,1120.0 1874.3,1149.7 1906.0,1177.7 1939.1,1204.2 1973.6,1229.0 2009.4,1252.0 2046.5,1273.2 2084.6,1292.7 2123.8,1310.3 2163.9,1326.2 2204.9,1340.1 2246.6,1352.3 2288.8,1362.6 2331.5,1371.0 2374.6,1377.7 2417.8,1382.5 2461.2,1385.6 2504.4,1386.9 2547.4,1386.6 2590.0,1384.6 2632.0,1381.0  " style="stroke-opacity: 1.000000; stroke-width: 4.0; stroke: rgb(43,131,186); fill: none"  />
<path d="M 2617.4,1283.6 L 2576.3,1290.7 2534.6,1296.4 2492.3,1300.5 2449.8,1302.9 2407.2,1303.6 2364.6,1302.6 2322.1,1299.8 2279.9,1295.1 2238.2,1288.6 2197.0,1280.2 2156.6,1269.9 2116.9,1257.7 2078.1,1243.6 2040.4,1227.6 2003.7,1209.7 1968.3,1189.9 1934.1,1168.3 1901.4,1144.9 1870.0,1119.7 1840.2,1092.8 1811.9,1064.2 1785.2,1034.0 1760.2,1002.3 1736.9,969.1 1715.3,934.5 1695.5,898.6 1677.5,861.5 1661.3,823.2 1646.9,784.0 1634.3,744.0 1623.5,703.1 1614.5,661.7 1607.4,619.7 1602.0,577.4 1598.3,534.9 1596.3,492.4 1596.0,450.0 1597.3,407.9 1600.2,366.2  " style="stroke-opacity: 1.000000; stroke-width: 4.0; stroke: rgb(43,131,186); fill: none"  />
<path d="M 1599.8,366.2 L 1597.0,407.5 1595.6,449.3 1595.9,491.4 1597.8,533.5 1601.3,575.4 1606.6,617.1 1613.6,658.4 1622.4,699.1 1633.0,739.1 1645.4,778.3 1659.6,816.4 1675.5,853.5 1693.3,889.4 1712.8,924.0 1734.1,957.2 1757.1,988.9 1781.7,1019.0 1808.1,1047.5 1836.0,1074.3 1865.5,1099.3 1896.4,1122.5 1928.8,1143.8 1962.6,1163.3 1997.6,1180.8 2033.8,1196.4 2071.1,1210.1 2109.4,1221.8 2148.6,1231.5 2188.5,1239.3 2229.2,1245.1 2270.3,1249.1 2311.9,1251.1 2353.8,1251.4 2395.8,1249.8 2437.8,1246.5 2479.7,1241.5 2521.2,1234.9 2562.2,1226.8 2602.5,1217.3  " style="stroke-opacity: 1.000000; stroke-width: 4.0; stroke: rgb(43,131,186); fill: none"  />
<path d="M 1599.8,366.2 L 1596.9,407.6 1595.6,449.5 1595.9,491.6 1597.8,533.7 1601.4,575.8 1606.7,617.7 1613.7,659.1 1622.6,699.9 1633.2,740.1 1645.6,779.4 1659.9,817.8 1675.9,855.1 1693.7,891.3 1713.3,926.1 1734.6,959.6 1757.7,991.6 1782.5,1022.1 1808.9,1050.9 1836.9,1078.1 1866.5,1103.5 1897.5,1127.1 1930.0,1148.9 1963.9,1168.8 1999.0,1186.8 2035.3,1202.8 2072.7,1217.0 2111.1,1229.1 2150.4,1239.4 2190.5,1247.7 2231.2,1254.0 2272.5,1258.5 2314.3,1261.1 2356.3,1261.9 2398.4,1260.8 2440.6,1258.0 2482.6,1253.6 2524.2,1247.5 2565.4,1239.9 2605.9,1230.9  " style="stroke-opacity: 1.000000; stroke-width: 4.0; stroke: rgb(171,221,164); fill: none"  />
<path d="M 2605.6,1229.5 L 2565.1,1238.7 2523.9,1246.3 2482.3,1252.4 2440.3,1256.9 2398.2,1259.8 2356.1,1260.8 2314.1,1260.1 2272.4,1257.6 2231.1,1253.2 2190.3,1246.9 2150.3,1238.6 2111.0,1228.4 2072.6,1216.3 2035.2,1202.2 1999.0,1186.2 1963.9,1168.3 1930.1,1148.4 1897.6,1126.7 1866.6,1103.1 1837.0,1077.7 1809.0,1050.6 1782.6,1021.8 1757.9,991.4 1734.9,959.4 1713.5,925.9 1694.0,891.1 1676.2,855.0 1660.2,817.7 1646.0,779.4 1633.6,740.0 1623.0,699.9 1614.2,659.0 1607.2,617.6 1601.9,575.8 1598.3,533.8 1596.4,491.6 1596.2,449.5 1597.5,407.6 1600.4,366.2  " style="stroke-opacity: 1.000000; stroke-width: 4.0; stroke: rgb(43,131,186); fill: none"  />
<path d="M 2132.9,2446.0 L 2106.4,2405.0 2080.5,2362.5 2055.2,2318.4 2030.5,2272.9 2006.4,2226.0 1982.9,2177.9 1960.0,2128.6 1937.7,2078.1 1915.9,2026.6 1894.8,1974.2 1874.2,1920.9 1854.3,1866.7 1834.9,1811.9 1816.2,1756.3 1798.1,1700.2 1780.6,1643.6 1763.7,1586.5 1747.5,1529.1 1732.0,1471.4 1717.2,1413.5 1703.0,1355.4 1689.6,1297.3 1676.9,1239.2 1665.1,1181.1 1654.0,1123.2 1643.7,1065.5 1634.3,1008.1 1625.7,951.0 1618.1,894.4 1611.4,838.2 1605.7,782.6 1601.0,727.7 1597.4,673.4 1594.8,619.9 1593.4,567.3 1593.2,515.5 1594.2,464.7 1596.4,414.9 1600.0,366.2  " style="stroke-opacity: 1.000000; stroke-width: 4.0; stroke: rgb(171,221,164); fill: none"  />
<path d="M 2431.5,2154.0 L 2394.1,2126.7 2356.9,2097.6 2320.0,2066.6 2283.4,2033.9 2247.3,1999.6 2211.7,1963.7 2176.5,1926.3 2142.0,1887.4 2108.2,1847.1 2075.0,1805.5 2042.6,1762.7 2010.9,1718.7 1980.2,1673.6 1950.3,1627.5 1921.4,1580.4 1893.4,1532.4 1866.5,1483.6 1840.6,1434.1 1815.9,1383.9 1792.3,1333.2 1769.9,1281.9 1748.7,1230.3 1728.7,1178.2 1710.0,1126.0 1692.6,1073.5 1676.6,1020.9 1661.9,968.3 1648.6,915.8 1636.8,863.4 1626.3,811.2 1617.4,759.4 1609.9,707.9 1603.9,657.0 1599.4,606.6 1596.4,556.8 1595.0,507.8 1595.1,459.7 1596.7,412.4 1600.0,366.2  " style="stroke-opacity: 1.000000; stroke-width: 4.0; stroke: rgb(171,221,164); fill: none"  />
<path d="M 2138.6,2442.2 L 2111.9,2401.4 2085.7,2359.0 2060.2,2315.1 2035.3,2269.8 2010.9,2223.1 1987.2,2175.1 1964.0,2126.0 1941.5,2075.7 1919.5,2024.3 1898.1,1972.0 1877.4,1918.8 1857.2,1864.8 1837.6,1810.1 1818.7,1754.7 1800.3,1698.7 1782.6,1642.1 1765.6,1585.2 1749.2,1527.9 1733.5,1470.2 1718.5,1412.4 1704.2,1354.4 1690.6,1296.4 1677.8,1238.3 1665.8,1180.3 1654.5,1122.5 1644.1,1064.9 1634.6,1007.5 1626.0,950.5 1618.2,893.9 1611.5,837.8 1605.7,782.3 1600.9,727.4 1597.2,673.1 1594.6,619.7 1593.2,567.1 1592.9,515.3 1593.8,464.6 1596.1,414.8 1599.6,366.2  " style="stroke-opacity: 1.000000; stroke-width: 4.0; stroke: rgb(253,174,97); fill: none"  />
<path d="M 1599.6,366.2 L 1596.4,412.3 1594.8,459.5 1594.7,507.6 1596.1,556.6 1599.2,606.2 1603.7,656.6 1609.8,707.5 1617.3,758.8 1626.4,810.6 1636.9,862.6 1648.9,914.9 1662.2,967.3 1677.0,1019.8 1693.2,1072.2 1710.7,1124.5 1729.5,1176.7 1749.6,1228.5 1771.0,1280.0 1793.5,1331.1 1817.3,1381.6 1842.2,1431.6 1868.3,1480.9 1895.4,1529.4 1923.6,1577.2 1952.7,1624.0 1982.8,1669.9 2013.8,1714.7 2045.6,1758.5 2078.2,1801.0 2111.6,1842.3 2145.7,1882.3 2180.5,1920.9 2215.8,1958.0 2251.7,1993.6 2288.0,2027.6 2324.8,2059.9 2361.9,2090.6 2399.3,2119.4 2436.9,2146.3  " style="stroke-opacity: 1.000000; stroke-width: 4.0; stroke: rgb(43,131,186); fill: none"  />
<path d="M 2437.7,2145.1 L 2400.1,2118.2 2362.7,2089.4 2325.5,2058.9 2288.8,2026.6 2252.4,1992.6 2216.5,1957.1 2181.1,1920.0 2146.4,1881.5 2112.2,1841.5 2078.8,1800.3 2046.1,1757.8 2014.3,1714.1 1983.3,1669.3 1953.2,1623.5 1924.0,1576.7 1895.8,1529.0 1868.7,1480.5 1842.6,1431.2 1817.7,1381.3 1793.9,1330.7 1771.3,1279.7 1750.0,1228.2 1729.8,1176.4 1711.0,1124.3 1693.5,1072.0 1677.4,1019.6 1662.6,967.2 1649.2,914.8 1637.3,862.5 1626.8,810.5 1617.7,758.8 1610.2,707.4 1604.1,656.5 1599.6,606.2 1596.6,556.6 1595.1,507.6 1595.2,459.5 1596.9,412.4 1600.2,366.2  " style="stroke-opacity: 1.000000; stroke-width: 4.0; stroke: rgb(43,131,186); fill: none"  />
<path d="M 1600.0,366.2 L 1596.3,415.6 1593.8,466.1 1592.5,517.7 1592.3,570.2 1593.2,623.6 1595.0,677.9 1597.8,732.9 1601.5,788.7 1606.1,845.1 1611.5,902.1 1617.6,959.6 1624.5,1017.6 1632.1,1076.0 1640.4,1134.8 1649.3,1193.8 1658.9,1252.9 1669.0,1312.3 1679.8,1371.7 1691.1,1431.0 1702.9,1490.4 1715.3,1549.5 1728.1,1608.5 1741.5,1667.2 1755.4,1725.5 1769.8,1783.4 1784.7,1840.8 1800.1,1897.7 1815.9,1953.9 1832.3,2009.4 1849.2,2064.1 1866.7,2117.9 1884.7,2170.8 1903.2,2222.7 1922.3,2273.5 1942.0,2323.2 1962.4,2371.6 1983.3,2418.7 2005.0,2464.4 2027.4,2508.7  " style="stroke-opacity: 1.000000; stroke-width: 4.0; stroke: rgb(171,221,164); fill: none"  />
<path d="M 1600.0,366.2 L 1595.9,417.9 1592.8,470.6 1590.4,524.2 1588.7,578.7 1587.7,634.1 1587.2,690.2 1587.2,747.0 1587.6,804.5 1588.3,862.6 1589.4,921.3 1590.6,980.5 1592.1,1040.1 1593.7,1100.1 1595.5,1160.5 1597.3,1221.2 1599.2,1282.2 1601.2,1343.3 1603.2,1404.5 1605.1,1465.9 1607.1,1527.3 1609.1,1588.6 1611.1,1649.9 1613.1,1711.0 1615.1,1771.9 1617.2,1832.6 1619.4,1893.0 1621.6,1953.0 1624.0,2012.6 1626.5,2071.8 1629.3,2130.4 1632.3,2188.4 1635.6,2245.8 1639.3,2302.5 1643.4,2358.5 1648.0,2413.6 1653.2,2467.9 1659.0,2521.3 1665.6,2573.6 1672.9,2625.0  " style="stroke-opacity: 1.000000; stroke-width: 4.0; stroke: rgb(171,221,164); fill: none"  />
<path d="M 1600.0,366.2 L 1595.8,419.0 1592.2,472.7 1589.3,527.2 1586.9,582.6 1584.9,638.6 1583.2,695.3 1581.7,752.7 1580.5,810.6 1579.3,869.1 1578.2,928.0 1577.0,987.4 1575.8,1047.1 1574.5,1107.2 1573.0,1167.6 1571.3,1228.3 1569.4,1289.1 1567.3,1350.1 1564.9,1411.2 1562.3,1472.3 1559.4,1533.5 1556.2,1594.6 1552.8,1655.6 1549.2,1716.5 1545.3,1777.3 1541.2,1837.8 1537.0,1898.0 1532.7,1958.0 1528.2,2017.6 1523.8,2076.8 1519.3,2135.6 1515.0,2193.9 1510.8,2251.7 1506.8,2308.9 1503.1,2365.6 1499.8,2421.5 1497.0,2476.8 1494.7,2531.4 1493.2,2585.2 1492.4,2638.2  " style="stroke-opacity: 1.000000; stroke-width: 4.0; stroke: rgb(171,221,164); fill: none"  />
<path d="M 1600.0,366.2 L 1595.8,419.0 1592.3,472.6 1589.4,527.1 1587.0,582.4 1585.0,638.4 1583.4,695.1 1582.0,752.4 1580.8,810.3 1579.7,868.8 1578.7,927.7 1577.7,987.1 1576.6,1046.9 1575.4,1107.0 1574.1,1167.4 1572.6,1228.0 1570.9,1288.9 1568.9,1349.9 1566.8,1411.0 1564.4,1472.1 1561.7,1533.3 1558.8,1594.5 1555.7,1655.5 1552.3,1716.5 1548.7,1777.3 1544.9,1837.8 1541.0,1898.1 1537.0,1958.1 1532.9,2017.7 1528.8,2077.0 1524.7,2135.8 1520.7,2194.1 1516.9,2251.9 1513.3,2309.1 1510.0,2365.7 1507.1,2421.7 1504.6,2477.0 1502.8,2531.5 1501.6,2585.3 1501.3,2638.2  " style="stroke-opacity: 1.000000; stroke-width: 4.0; stroke: rgb(171,221,164); fill: none"  />
<path d="M 1972.1,2535.7 L 1952.0,2490.0 1932.6,2442.8 1913.9,2394.4 1895.9,2344.7 1878.5,2293.8 1861.7,2241.8 1845.5,2188.8 1829.8,2134.8 1814.6,2080.0 1799.9,2024.3 1785.7,1967.9 1771.9,1910.8 1758.6,1853.2 1745.7,1795.0 1733.3,1736.3 1721.2,1677.3 1709.7,1618.0 1698.5,1558.4 1687.8,1498.6 1677.5,1438.7 1667.7,1378.8 1658.4,1318.9 1649.5,1259.1 1641.2,1199.4 1633.4,1140.0 1626.1,1080.8 1619.4,1022.0 1613.4,963.6 1608.0,905.7 1603.3,848.3 1599.4,791.6 1596.2,735.4 1593.8,680.0 1592.3,625.4 1591.8,571.7 1592.2,518.8 1593.7,466.9 1596.3,416.0 1600.0,366.2  " style="stroke-opacity: 1.000000; stroke-width: 4.0; stroke: rgb(43,131,186); fill: none"  />
<path d="M 1582.3,2635.2 L 1579.0,2582.9 1576.5,2529.6 1574.7,2475.5 1573.5,2420.6 1572.8,2364.8 1572.6,2308.4 1572.8,2251.3 1573.2,2193.5 1573.9,2135.2 1574.8,2076.4 1575.7,2017.0 1576.8,1957.3 1577.9,1897.2 1578.9,1836.7 1579.9,1776.0 1580.9,1715.0 1581.7,1653.9 1582.5,1592.7 1583.1,1531.3 1583.5,1470.0 1583.9,1408.6 1584.1,1347.4 1584.2,1286.2 1584.2,1225.3 1584.2,1164.5 1584.0,1104.1 1583.9,1044.0 1583.8,984.2 1583.7,924.9 1583.8,866.0 1584.0,807.7 1584.4,749.9 1585.2,692.8 1586.3,636.4 1587.8,580.7 1589.8,525.8 1592.5,471.7 1595.8,418.5 1600.0,366.2  " style="stroke-opacity: 1.000000; stroke-width: 4.0; stroke: rgb(43,131,186); fill: none"  />
<path d="M 1600.0,366.2 L 1596.0,417.9 1592.8,470.5 1590.5,524.1 1588.8,578.6 1587.8,633.9 1587.3,690.0 1587.4,746.8 1587.8,804.3 1588.6,862.3 1589.8,921.0 1591.1,980.2 1592.7,1039.8 1594.4,1099.8 1596.3,1160.2 1598.3,1220.9 1600.3,1281.8 1602.4,1342.9 1604.5,1404.2 1606.7,1465.5 1608.8,1526.9 1611.0,1588.2 1613.2,1649.5 1615.4,1710.6 1617.6,1771.5 1619.9,1832.2 1622.3,1892.6 1624.8,1952.6 1627.4,2012.2 1630.2,2071.3 1633.2,2129.9 1636.5,2187.9 1640.0,2245.2 1644.0,2301.9 1648.4,2357.8 1653.3,2412.9 1658.7,2467.1 1664.8,2520.4 1671.7,2572.7 1679.3,2624.0  " style="stroke-opacity: 1.000000; stroke-width: 4.0; stroke: rgb(43,131,186); fill: none"  />
<path d="M 1600.0,366.2 L 1595.7,419.4 1592.0,473.5 1588.9,528.3 1586.2,583.9 1583.8,640.2 1581.6,697.1 1579.7,754.6 1577.8,812.6 1575.9,871.1 1573.9,930.1 1571.9,989.4 1569.7,1049.1 1567.2,1109.1 1564.5,1169.4 1561.5,1229.9 1558.2,1290.5 1554.6,1351.3 1550.6,1412.1 1546.3,1473.0 1541.6,1533.8 1536.5,1594.6 1531.1,1655.4 1525.3,1716.0 1519.3,1776.4 1512.9,1836.6 1506.3,1896.6 1499.5,1956.2 1492.5,2015.5 1485.4,2074.5 1478.2,2133.1 1471.1,2191.2 1464.1,2248.8 1457.2,2305.9 1450.5,2362.5 1444.2,2418.4 1438.3,2473.8 1433.0,2528.4 1428.3,2582.4 1424.4,2635.7  " style="stroke-opacity: 1.000000; stroke-width: 4.0; stroke: rgb(43,131,186); fill: none"  />
<path d="M 2033.3,2505.5 L 2010.7,2461.4 1988.8,2415.9 1967.6,2369.0 1947.0,2320.7 1927.1,2271.2 1907.7,2220.5 1888.9,2168.7 1870.7,2115.9 1853.0,2062.2 1835.9,2007.6 1819.3,1952.2 1803.1,1896.1 1787.5,1839.4 1772.4,1782.1 1757.9,1724.3 1743.8,1666.0 1730.2,1607.4 1717.1,1548.5 1704.6,1489.4 1692.6,1430.2 1681.2,1370.8 1670.3,1311.5 1660.0,1252.3 1650.3,1193.1 1641.3,1134.2 1632.9,1075.5 1625.2,1017.1 1618.2,959.2 1612.0,901.7 1606.5,844.7 1601.9,788.4 1598.2,732.7 1595.4,677.7 1593.5,623.4 1592.6,570.1 1592.8,517.6 1594.1,466.1 1596.6,415.6 1600.2,366.2  " style="stroke-opacity: 1.000000; stroke-width: 4.0; stroke: rgb(43,131,186); fill: none"  />
<path d="M 415.0,1843.9 L 458.1,1829.3 501.5,1812.9 545.0,1794.7 588.6,1774.6 632.2,1752.8 675.7,1729.3 718.9,1704.1 761.9,1677.3 804.6,1648.9 846.7,1619.0 888.4,1587.6 929.4,1554.7 969.8,1520.5 1009.5,1485.0 1048.3,1448.2 1086.3,1410.1 1123.3,1371.0 1159.3,1330.8 1194.3,1289.5 1228.1,1247.3 1260.8,1204.2 1292.2,1160.3 1322.4,1115.7 1351.3,1070.4 1378.8,1024.5 1404.8,978.0 1429.5,931.2 1452.6,884.0 1474.2,836.5 1494.3,788.8 1512.7,741.0 1529.6,693.3 1544.7,645.6 1558.3,598.0 1570.1,550.7 1580.2,503.8 1588.5,457.4 1595.1,411.5 1600.0,366.2  " style="stroke-opacity: 1.000000; stroke-width: 4.0; stroke: rgb(171,221,164); fill: none"  />
<path d="M 589.8,2183.4 L 627.5,2154.2 665.0,2123.1 702.4,2090.3 739.5,2055.9 776.3,2019.9 812.8,1982.4 849.0,1943.4 884.8,1903.1 920.2,1861.6 955.1,1818.8 989.6,1774.8 1023.5,1729.8 1056.9,1683.8 1089.6,1636.8 1121.8,1589.0 1153.2,1540.4 1184.0,1491.1 1214.0,1441.2 1243.2,1390.6 1271.5,1339.6 1299.0,1288.1 1325.6,1236.3 1351.3,1184.1 1376.0,1131.7 1399.6,1079.2 1422.2,1026.6 1443.6,974.0 1464.0,921.4 1483.1,868.9 1501.0,816.7 1517.6,764.7 1533.0,713.0 1546.9,661.7 1559.5,610.9 1570.6,560.6 1580.3,510.9 1588.4,461.9 1595.0,413.7 1600.0,366.2  " style="stroke-opacity: 1.000000; stroke-width: 4.0; stroke: rgb(171,221,164); fill: none"  />
<path d="M 1600.0,366.2 L 1595.0,414.5 1588.5,463.6 1580.5,513.4 1571.1,564.0 1560.3,615.3 1548.3,667.1 1534.9,719.5 1520.4,772.4 1504.6,825.7 1487.8,879.3 1469.9,933.3 1450.9,987.4 1431.0,1041.7 1410.1,1096.1 1388.3,1150.5 1365.6,1204.9 1342.1,1259.2 1317.8,1313.3 1292.7,1367.2 1266.9,1420.8 1240.5,1474.0 1213.3,1526.7 1185.5,1579.0 1157.2,1630.6 1128.2,1681.6 1098.7,1731.9 1068.7,1781.3 1038.2,1829.9 1007.2,1877.6 975.8,1924.2 944.0,1969.7 911.7,2014.0 879.1,2057.2 846.1,2098.9 812.7,2139.3 779.0,2178.2 745.0,2215.6 710.7,2251.3 676.1,2285.3  " style="stroke-opacity: 1.000000; stroke-width: 4.0; stroke: rgb(171,221,164); fill: none"  />
<path d="M 488.2,2021.3 L 529.2,1999.2 570.3,1975.3 611.4,1949.6 652.3,1922.1 693.2,1892.9 733.8,1862.2 774.1,1829.8 814.1,1796.0 853.6,1760.7 892.8,1724.0 931.4,1686.0 969.4,1646.8 1006.8,1606.3 1043.5,1564.8 1079.4,1522.2 1114.6,1478.6 1149.0,1434.0 1182.4,1388.7 1214.9,1342.5 1246.4,1295.6 1276.8,1248.1 1306.2,1199.9 1334.5,1151.3 1361.5,1102.3 1387.4,1052.9 1412.0,1003.2 1435.3,953.3 1457.2,903.2 1477.8,853.1 1497.0,803.1 1514.7,753.1 1530.9,703.3 1545.6,653.7 1558.7,604.5 1570.3,555.7 1580.2,507.4 1588.5,459.6 1595.2,412.5 1600.1,366.2  " style="stroke-opacity: 1.000000; stroke-width: 4.0; stroke: rgb(43,131,186); fill: none"  />
<path d="M 1600.0,366.2 L 1595.1,411.4 1588.5,457.3 1580.1,503.7 1570.0,550.5 1558.2,597.7 1544.7,645.2 1529.5,692.8 1512.6,740.5 1494.2,788.1 1474.1,835.7 1452.4,883.0 1429.2,930.1 1404.6,976.8 1378.4,1023.1 1350.9,1068.8 1322.0,1113.9 1291.7,1158.4 1260.2,1202.0 1227.4,1244.9 1193.5,1286.9 1158.4,1327.9 1122.3,1367.9 1085.2,1406.8 1047.1,1444.5 1008.2,1481.0 968.4,1516.2 927.9,1550.1 886.7,1582.7 845.0,1613.7 802.7,1643.3 759.9,1671.4 716.8,1697.9 673.5,1722.7 629.9,1745.9 586.2,1767.3 542.5,1787.0 498.9,1804.9 455.4,1820.9 412.3,1835.1  " style="stroke-opacity: 1.000000; stroke-width: 4.0; stroke: rgb(43,131,186); fill: none"  />
<path d="M 1599.5,366.2 L 1594.5,413.6 1588.0,461.8 1579.9,510.7 1570.2,560.3 1559.1,610.5 1546.5,661.2 1532.5,712.4 1517.1,764.0 1500.4,815.9 1482.5,868.1 1463.3,920.4 1442.9,972.8 1421.3,1025.3 1398.6,1077.8 1374.8,1130.2 1350.0,1182.4 1324.2,1234.3 1297.5,1286.0 1269.8,1337.3 1241.3,1388.1 1211.9,1438.4 1181.7,1488.1 1150.7,1537.2 1119.0,1585.5 1086.7,1633.1 1053.7,1679.7 1020.1,1725.5 985.9,1770.2 951.2,1813.8 916.0,1856.3 880.3,1897.5 844.3,1937.5 807.9,1976.1 771.1,2013.2 734.0,2048.8 696.7,2082.9 659.1,2115.3 621.3,2146.0 583.4,2174.8  " style="stroke-opacity: 1.000000; stroke-width: 4.0; stroke: rgb(43,131,186); fill: none"  />
<path d="M 1600.0,366.2 L 1595.9,406.1 1590.5,445.8 1583.8,485.3 1575.9,524.3 1566.6,562.5 1556.0,599.7 1544.2,635.9 1531.0,670.7 1516.5,704.1 1500.7,735.9 1483.7,766.0 1465.4,794.2 1445.8,820.4 1425.1,844.5 1403.2,866.4 1380.1,886.1 1356.0,903.4 1330.8,918.4 1304.6,930.9 1277.4,941.0 1249.4,948.5 1220.5,953.6 1190.9,956.2 1160.6,956.3 1129.7,953.9 1098.3,949.2 1066.4,942.0 1034.1,932.6 1001.6,920.9 968.9,907.0 936.2,891.1 903.5,873.3 870.9,853.6 838.6,832.2 806.7,809.3 775.3,784.9 744.5,759.3 714.5,732.6 685.4,705.1  " style="stroke-opacity: 1.000000; stroke-width: 4.0; stroke: rgb(43,131,186); fill: none"  />
<path d="M 1600.0,366.2 L 1596.8,411.7 1595.3,458.2 1595.4,505.5 1597.1,553.6 1600.4,602.4 1605.3,651.8 1611.8,701.6 1619.9,751.8 1629.6,802.3 1640.9,853.0 1653.8,903.8 1668.1,954.6 1684.0,1005.3 1701.3,1055.9 1720.2,1106.3 1740.4,1156.3 1762.1,1206.0 1785.1,1255.1 1809.4,1303.7 1835.1,1351.7 1862.0,1398.9 1890.1,1445.3 1919.3,1490.9 1949.7,1535.5 1981.1,1579.1 2013.6,1621.7 2047.0,1663.1 2081.2,1703.2 2116.4,1742.1 2152.3,1779.6 2188.9,1815.7 2226.1,1850.4 2263.9,1883.5 2302.2,1915.0 2340.9,1944.8 2380.0,1972.9 2419.3,1999.3 2458.8,2023.8 2498.5,2046.4  " style="stroke-opacity: 1.000000; stroke-width: 4.0; stroke: rgb(253,174,97); fill: none"  />
</g>
<g id="track_1">
<path d="M 1600.0,366.2 L 1598.6,389.7 1598.6,413.3 1600.0,437.0 1602.7,460.5 1606.8,483.7 1612.1,506.5 1618.6,528.7 1626.4,550.3 1635.3,571.1 1645.4,591.0 1656.6,610.0 1668.9,627.8 1682.1,644.6 1696.4,660.1 1711.5,674.3 1727.5,687.2 1744.3,698.6 1761.8,708.6 1779.9,717.1 1798.7,724.1 1818.1,729.5 1837.8,733.4 1858.0,735.6 1878.5,736.3 1899.3,735.4 1920.2,732.9 1941.1,728.9 1962.1,723.4 1982.9,716.3 2003.6,707.8 2023.9,697.9 2043.9,686.6 2063.4,674.0 2082.3,660.2 2100.5,645.3 2117.9,629.2 2134.3,612.2 2149.8,594.3 2164.1,575.6  " style="stroke-opacity: 1.000000; stroke-width: 4.0; stroke: rgb(253,174,97); fill: none"  />
<path d="M 1600.0,366.2 L 1598.1,389.0 1596.5,411.8 1595.2,434.1 1594.2,456.1 1593.6,477.4 1593.2,497.9 1593.1,517.6 1593.4,536.3 1594.0,553.9 1594.9,570.2 1596.2,585.2 1597.7,598.9 1599.6,611.0 1601.8,621.6 1604.2,630.7 1607.0,638.1 1610.1,643.8 1613.4,647.8 1617.0,650.1 1620.9,650.6 1624.9,649.4 1629.2,646.5 1633.8,641.8 1638.4,635.5 1643.3,627.5 1648.3,617.8 1653.5,606.7 1658.7,594.0 1664.0,579.9 1669.4,564.4 1674.8,547.7 1680.2,529.8 1685.5,510.9 1690.8,491.0 1696.0,470.3 1701.1,449.0 1706.0,427.1 1710.7,404.8 1715.1,382.3  " style="stroke-opacity: 1.000000; stroke-width: 4.0; stroke: rgb(171,221,164); fill: none"  />
<path d="M 1600.0,366.2 L 1598.3,389.2 1597.3,412.1 1596.9,434.7 1597.2,457.0 1598.1,478.7 1599.7,499.8 1602.0,520.0 1604.8,539.3 1608.3,557.6 1612.4,574.7 1617.1,590.6 1622.4,605.2 1628.2,618.4 1634.6,630.1 1641.5,640.2 1648.9,648.8 1656.8,655.8 1665.1,661.1 1673.8,664.8 1682.9,666.7 1692.4,667.0 1702.1,665.5 1712.1,662.4 1722.4,657.5 1732.9,651.1 1743.5,643.0 1754.2,633.4 1765.0,622.2 1775.8,609.7 1786.5,595.7 1797.2,580.5 1807.7,564.0 1818.0,546.4 1828.1,527.9 1837.8,508.4 1847.2,488.2 1856.1,467.4 1864.5,446.1 1872.4,424.4  " style="stroke-opacity: 1.000000; stroke-width: 4.0; stroke: rgb(171,221,164); fill: none"  />
<path d="M 1720.3,383.3 L 1715.7,405.8 1710.9,428.0 1705.8,449.9 1700.6,471.2 1695.3,491.9 1689.8,511.7 1684.3,530.6 1678.8,548.5 1673.2,565.1 1667.7,580.6 1662.2,594.6 1656.7,607.3 1651.4,618.4 1646.2,628.0 1641.2,636.0 1636.3,642.3 1631.6,646.9 1627.1,649.8 1622.9,651.0 1618.9,650.4 1615.1,648.1 1611.6,644.1 1608.4,638.3 1605.5,630.9 1602.8,621.9 1600.5,611.2 1598.5,599.0 1596.8,585.4 1595.5,570.3 1594.5,553.9 1593.8,536.4 1593.4,517.7 1593.4,498.0 1593.7,477.4 1594.3,456.1 1595.3,434.2 1596.5,411.8 1598.1,389.1 1600.0,366.2  " style="stroke-opacity: 1.000000; stroke-width: 4.0; stroke: rgb(43,131,186); fill: none"  />
<path d="M 2168.9,579.1 L 2154.5,597.7 2138.9,615.5 2122.3,632.5 2104.8,648.4 2086.5,663.3 2067.4,676.9 2047.8,689.4 2027.7,700.6 2007.1,710.4 1986.3,718.8 1965.3,725.7 1944.2,731.1 1923.0,735.0 1901.9,737.3 1881.0,738.1 1860.4,737.3 1840.0,734.9 1820.0,730.9 1800.5,725.4 1781.6,718.3 1763.2,709.7 1745.5,699.6 1728.6,688.0 1712.5,675.1 1697.2,660.8 1682.8,645.2 1669.4,628.3 1657.1,610.4 1645.7,591.4 1635.5,571.4 1626.5,550.5 1618.6,528.9 1612.0,506.6 1606.6,483.8 1602.5,460.5 1599.7,437.0 1598.3,413.3 1598.3,389.7 1599.6,366.2  " style="stroke-opacity: 1.000000; stroke-width: 4.0; stroke: rgb(253,174,97); fill: none"  />
<path d="M 1844.8,415.3 L 1837.6,437.1 1829.8,458.7 1821.6,479.7 1813.0,500.2 1804.0,519.9 1794.8,538.7 1785.4,556.6 1775.7,573.3 1766.0,588.9 1756.2,603.2 1746.4,616.1 1736.6,627.6 1726.8,637.6 1717.2,646.0 1707.7,652.8 1698.4,657.9 1689.4,661.4 1680.6,663.2 1672.1,663.2 1663.9,661.6 1656.1,658.3 1648.6,653.2 1641.6,646.5 1635.0,638.2 1628.9,628.3 1623.3,616.8 1618.1,603.8 1613.5,589.5 1609.4,573.8 1605.9,556.8 1602.9,538.7 1600.5,519.5 1598.7,499.4 1597.4,478.4 1596.8,456.8 1596.7,434.6 1597.2,412.0 1598.4,389.2 1600.1,366.2  " style="stroke-opacity: 1.000000; stroke-width: 4.0; stroke: rgb(43,131,186); fill: none"  />
<path d="M 1483.8,361.9 L 1484.3,384.8 1485.0,407.6 1486.0,430.0 1487.3,451.9 1488.8,473.2 1490.5,493.7 1492.4,513.2 1494.6,531.8 1497.0,549.2 1499.6,565.4 1502.3,580.2 1505.3,593.6 1508.4,605.5 1511.6,615.8 1515.0,624.6 1518.5,631.7 1522.1,637.0 1525.9,640.7 1529.7,642.6 1533.6,642.7 1537.5,641.1 1541.5,637.7 1545.5,632.7 1549.5,625.9 1553.5,617.4 1557.5,607.3 1561.5,595.7 1565.4,582.5 1569.3,567.9 1573.0,552.0 1576.7,534.8 1580.2,516.5 1583.6,497.1 1586.9,476.8 1589.9,455.7 1592.8,433.9 1595.4,411.7 1597.8,389.0 1600.0,366.2  " style="stroke-opacity: 1.000000; stroke-width: 4.0; stroke: rgb(43,131,186); fill: none"  />
<path d="M 2147.2,563.7 L 2133.3,582.6 2118.3,600.8 2102.2,618.1 2085.3,634.5 2067.6,649.8 2049.2,664.0 2030.3,677.0 2010.8,688.7 1991.0,699.0 1971.0,707.9 1950.7,715.4 1930.3,721.4 1909.9,725.9 1889.6,728.8 1869.5,730.1 1849.6,729.9 1830.0,728.0 1810.7,724.6 1792.0,719.6 1773.8,713.0 1756.1,704.9 1739.1,695.2 1722.9,684.1 1707.4,671.6 1692.7,657.7 1679.0,642.5 1666.2,626.1 1654.3,608.4 1643.5,589.7 1633.7,570.0 1625.1,549.4 1617.6,528.0 1611.3,505.9 1606.2,483.3 1602.4,460.2 1599.8,436.8 1598.6,413.2 1598.6,389.6 1600.0,366.2  " style="stroke-opacity: 1.000000; stroke-width: 4.0; stroke: rgb(171,221,164); fill: none"  />
<path d="M 1600.1,366.2 L 1598.5,389.3 1597.9,412.5 1598.3,435.5 1599.6,458.2 1601.9,480.4 1605.0,502.1 1609.1,523.0 1614.1,543.1 1619.9,562.3 1626.6,580.4 1634.1,597.3 1642.3,613.0 1651.4,627.4 1661.1,640.4 1671.5,652.0 1682.6,662.1 1694.3,670.6 1706.6,677.5 1719.4,682.9 1732.7,686.5 1746.4,688.6 1760.5,688.9 1774.9,687.7 1789.6,684.7 1804.5,680.2 1819.6,674.1 1834.7,666.4 1849.9,657.1 1865.0,646.5 1880.1,634.4 1894.9,621.0 1909.5,606.3 1923.8,590.5 1937.7,573.5 1951.1,555.6 1963.9,536.9 1976.0,517.3 1987.5,497.2 1998.0,476.5  " style="stroke-opacity: 1.000000; stroke-width: 4.0; stroke: rgb(43,131,186); fill: none"  />
</g>
<defs>
<pattern id="hline" width="10" height="10" patternTransform="rotate(0 0 0)" patternUnits="userSpaceOnUse"><line x1="0" y1="0" x2="10" y2="0" style="stroke:black;stroke-width:5" /></pattern>
<pattern id="checker" width="10" height="10" patternTransform="rotate(45 0 0)" patternUnits="userSpaceOnUse"><line x1="0" y1="0" x2="10" y2="0" style="stroke:black;stroke-width:2" /><line x1="0" y1="0" x2="0" y2="10" style="stroke:black;stroke-width:2" /></pattern>
<pattern id="checker" width="10" height="10" patternTransform="rotate(45 0 0)" patternUnits="userSpaceOnUse"><line x1="0" y1="0" x2="10" y2="0" style="stroke:black;stroke-width:5" /><line x1="0" y1="0" x2="0" y2="10" style="stroke:black;stroke-width:4" /></pattern>
<pattern id="vline-sparse" width="10" height="10" patternTransform="rotate(0 0 0)" patternUnits="userSpaceOnUse"><line x1="0" y1="0" x2="0" y2="10" style="stroke:black;stroke-width:2" /></pattern>
<pattern id="hline-sparse" width="10" height="10" patternTransform="rotate(0 0 0)" patternUnits="userSpaceOnUse"><line x1="0" y1="0" x2="10" y2="0" style="stroke:black;stroke-width:2" /></pattern>
<pattern id="vline" width="10" height="10" patternTransform="rotate(0 0 0)" patternUnits="userSpaceOnUse"><line x1="0" y1="0" x2="0" y2="10" style="stroke:black;stroke-width:5" /></pattern>
</defs>
</svg>
